<svg xmlns="http://www.w3.org/2000/svg" width="99" height="25" fill="none" viewBox="0 0 99 25">
    <path fill="#B5B5B5" d="M9.485 3.12c.21-.13.447-.21.693-.234.246-.025.495.006.727.091l-.135.72c-.256-.092-.536-.092-.792 0-.118.052-.219.136-.291.242-.073.106-.115.23-.121.358-.014.131.011.263.071.38.06.118.154.215.268.28.115.065.246.096.378.088.131-.008.257-.054.363-.132-.053-.227-.104-.453-.155-.68l.71-.16.302 1.302c-.365.246-.79.391-1.23.418-.192.015-.385-.012-.566-.08-.18-.067-.344-.173-.48-.31-.261-.3-.405-.684-.402-1.08-.004-.242.054-.48.17-.693.114-.213.281-.392.485-.522l.005.012zm3.423.108c.211-.173.465-.287.735-.33.27-.042.546-.01.8.09l-.075.828c-.154-.096-.332-.149-.514-.151-.116-.003-.231.024-.335.077-.103.054-.191.133-.256.23-.076.126-.108.275-.09.422.018.147.085.284.19.388.117.104.262.174.417.201.155.027.314.01.46-.048-.059.278-.12.557-.174.84-.413.038-.824-.077-1.158-.322-.14-.112-.257-.25-.342-.408-.085-.157-.138-.33-.154-.51-.027-.24.003-.485.09-.712.086-.227.225-.43.406-.593v-.002zm3.642 1.03c.354-.064.72.011 1.019.21.3.2.51.507.588.859.082.382.01.781-.2 1.11-.134.218-.321.397-.543.523-.222.125-.472.194-.727.198-.204-.003-.405-.05-.589-.14-.184-.088-.346-.216-.475-.375-.128-.158-.22-.343-.27-.541-.05-.198-.055-.405-.016-.605.052-.305.196-.588.413-.809.217-.221.496-.371.8-.43zm.08.769c-.175.042-.33.148-.43.298-.101.15-.142.333-.114.512.028.164.119.312.253.412.134.1.3.145.467.125.164-.022.315-.1.428-.22.114-.12.182-.275.195-.44.007-.096-.007-.192-.04-.282-.034-.09-.087-.171-.156-.239-.078-.075-.174-.13-.279-.16-.105-.029-.215-.031-.321-.006h-.002zm-11.07.258c.207-.183.416-.36.623-.543.84.508 1.687 1.006 2.53 1.509-.192.169-.386.337-.58.506l-.283-.172c-.247.215-.49.434-.74.646.038.103.08.205.12.308-.193.165-.38.336-.575.497L5.56 5.285h.002zm.84.396c.13.296.26.594.395.889l.431-.375c-.274-.172-.548-.349-.826-.514zm11.074 2.684c.818-.449 1.631-.904 2.448-1.354.136.24.266.48.4.72.15.244.22.529.2.814-.037.181-.132.346-.27.47-.138.122-.312.198-.496.215-.088.009-.176 0-.26-.027-.084-.026-.162-.07-.228-.127-.256.375-.514.748-.769 1.125-.137-.228-.26-.464-.392-.696l.765-1.08-1.045.578c-.12-.213-.24-.426-.353-.64v.002zm1.652-.086c.044.103.117.192.21.256.052.025.11.037.168.034.057-.003.114-.02.164-.048.05-.03.093-.07.124-.12.03-.048.05-.104.054-.162-.01-.106-.047-.209-.109-.296-.201.12-.406.226-.611.336zm-15.07-.894c.106-.06.224-.094.346-.1.12-.008.242.012.355.059.154.047.298.126.422.23.124.105.225.234.298.378.052.141.073.292.06.442-.013.15-.058.295-.133.425-.033.052-.058.11-.076.169.212.127.43.24.648.36-.12.211-.24.421-.36.635C4.8 9.53 3.988 9.075 3.17 8.63c.11-.206.225-.411.337-.617.124-.255.314-.472.55-.63l-.001.002zm.053.932c.198.106.392.22.589.329.063-.094.098-.203.102-.316-.014-.087-.06-.166-.13-.222-.068-.055-.155-.083-.243-.079-.074.016-.142.051-.198.102-.055.05-.097.114-.12.186zM2.895 10.62c.093-.023.19-.02.281.011.09.031.17.088.23.163.025.045.04.096.046.148.006.052.002.104-.013.154-.304 2.156.214 4.348 1.452 6.14 1.59.004 3.18.007 4.769.007.223-.675.451-1.348.674-2.021.037-.149.098-.29.181-.418.056-.082.132-.148.221-.19.09-.044.188-.063.287-.056.076.01.147.037.21.08.063.043.114.1.15.167.072.15.096.318.066.48-.275 2.128-.55 4.255-.823 6.382-2.065-.307-3.972-1.288-5.422-2.79-1.374-1.416-2.278-3.221-2.59-5.17-.147-.941-.147-1.9 0-2.842.018-.064.055-.121.105-.164.05-.043.113-.07.179-.076l-.003-.005zm17.763.089c.09-.062.196-.095.305-.095.109 0 .215.033.305.095.105.073.107.21.12.324.171 1.258.083 2.537-.26 3.76-.506 1.796-1.523 3.407-2.928 4.636-1.364 1.2-3.047 1.978-4.844 2.243l-.828-6.38c-.033-.175 0-.357.09-.512.044-.07.107-.127.182-.165.074-.037.157-.054.24-.048.147.027.283.1.387.207.105.107.173.245.195.393.23.693.464 1.386.694 2.08 1.588.005 3.177 0 4.767 0 1.247-1.8 1.765-4.004 1.45-6.17-.018-.065-.016-.134.005-.198.022-.064.062-.12.115-.162l.005-.008zm-16.871.327c.02-.049.048-.093.085-.13.037-.039.08-.069.128-.09.049-.02.1-.03.153-.031.053 0 .105.01.154.03.088.025.162.082.21.16.049.078.066.171.05.262-.28 1.947.21 3.928 1.368 5.52h-.972c-.547-.906-.933-1.899-1.143-2.936-.176-.92-.187-1.864-.033-2.788v.003zm15.652-.032c.037-.068.093-.124.16-.163.067-.038.144-.057.221-.055.078.003.154.027.218.07.065.043.116.103.15.173.198 1.191.123 2.412-.22 3.57-.229.757-.55 1.483-.96 2.16h-.971c1.153-1.58 1.645-3.547 1.373-5.484-.022-.09-.013-.185.025-.27l.004-.001zm-14.473.255c.015-.052.04-.1.074-.143.034-.042.077-.077.124-.102.048-.026.101-.041.155-.046.054-.005.109.002.16.019.092.02.173.074.226.153.052.079.071.174.054.267-.174 1.182-.007 2.389.48 3.48.31.694.741 1.328 1.273 1.87H6.445c-.613-.764-1.06-1.648-1.316-2.595-.255-.947-.31-1.936-.165-2.905l.002.002zm13.238.118c-.009-.093.018-.186.075-.26.058-.074.142-.123.234-.137.1-.027.207-.014.297.038.09.051.156.136.183.237.148.968.095 1.957-.158 2.904-.253.946-.699 1.83-1.31 2.596h-1.08c.692-.697 1.212-1.546 1.517-2.48.306-.935.387-1.928.24-2.9l.002.002zm-12.054.089c.01-.075.043-.146.095-.2.052-.056.12-.093.195-.107.09-.024.185-.018.272.016.086.035.159.096.208.176.04.093.049.197.023.295-.16 1.212.121 2.44.79 3.463.443.676 1.034 1.24 1.73 1.65H8.159c-.02.002-.039 0-.057-.007-.018-.006-.034-.017-.047-.031-.755-.681-1.323-1.545-1.65-2.508-.3-.882-.385-1.822-.25-2.743l-.005-.004zm10.91-.129c.039-.054.089-.098.147-.13.058-.033.123-.051.19-.055.066-.003.132.009.193.034.062.026.116.066.16.116.062.105.093.225.092.347.104.94-.017 1.889-.353 2.772-.336.882-.876 1.673-1.577 2.306-.035.04-.091.03-.138.033-.424 0-.847.006-1.27 0 .778-.455 1.425-1.104 1.878-1.884.569-.983.793-2.127.64-3.252-.025-.098-.011-.201.038-.289v.002z"/>
    <path fill="#B5B5B5" d="M11.867 7.137c.038-.252.06-.506.11-.755.15 1.08.29 2.15.44 3.224.371-.465.739-.932 1.112-1.397-.052.615-.112 1.228-.164 1.84.683-.438 1.364-.882 2.049-1.32-.442.683-.882 1.366-1.32 2.05l1.931-.229c-.516.384-1.038.76-1.553 1.146.742.16 1.487.309 2.229.473-.764.195-1.534.36-2.3.55.52.375 1.04.75 1.56 1.129-.67-.072-1.34-.151-2.01-.226.443.663.9 1.314 1.34 1.978-.65-.399-1.294-.804-1.94-1.21-.146-.074-.314-.093-.473-.053-.16.039-.3.134-.394.267-.06.089-.098.19-.11.298l-.393 2.866c-.144-.973-.26-1.95-.402-2.925-.024-.1-.07-.194-.135-.274-.065-.08-.147-.144-.24-.188-.093-.043-.195-.066-.298-.064-.103 0-.205.025-.297.071-.648.406-1.293.816-1.947 1.213.448-.661.902-1.32 1.352-1.979-.675.073-1.348.155-2.023.225.522-.375 1.042-.752 1.56-1.13-.766-.182-1.532-.364-2.298-.544.74-.172 1.487-.311 2.227-.48-.51-.382-1.027-.754-1.535-1.138.64.069 1.28.15 1.92.223-.437-.68-.88-1.356-1.312-2.04.681.431 1.353.877 2.032 1.312-.051-.612-.111-1.224-.162-1.836.376.46.738.93 1.111 1.392l.336-2.469h-.003zM31.983 5.768s-3.443.017-3.443-.032v13.019h3.36v-3.492h1.48s4.025-.183 4.025-4.938c0-4.756-5.422-4.557-5.422-4.557zm-.067 6.252V8.845s2.178-.183 2.178 1.662c0 1.846-2.178 1.51-2.178 1.51v.003zM45.252 5.715H41.51l-4.54 13.068h3.493l.531-1.462h4.574l.465 1.413h3.658L45.252 5.715zm-3.326 8.363l1.297-4.223 1.38 4.223h-2.677zM59.517 9.872l1.414-3.109c-1.267-.849-2.765-1.285-4.29-1.248-.908-.042-1.816.107-2.663.439-.846.332-1.614.838-2.253 1.486-.638.647-1.133 1.422-1.452 2.274-.32.851-.455 1.76-.4 2.669 0 5.736 4.607 6.65 7.117 6.65 1.431.022 2.852-.25 4.174-.798v-6.136h-3.376v3.127c-.389.238-.842.348-1.297.316-.427.032-.855-.029-1.256-.178-.4-.15-.764-.384-1.066-.688-.302-.303-.534-.668-.682-1.07-.147-.402-.206-.83-.171-1.257-.02-.427.047-.853.195-1.253.149-.4.376-.766.67-1.077.293-.31.646-.558 1.037-.73.39-.17.813-.26 1.24-.265 1.087-.076 2.166.224 3.06.848zM71.273 9.555l-.15-3.823c-.654-.154-1.324-.227-1.995-.217-.882 0-6.651.4-6.651 6.734 0 6.335 5.603 6.8 6.933 6.8.576.058 1.157-.022 1.696-.232l.283-3.96c-.616.325-1.3.501-1.996.515-.424.04-.852-.008-1.256-.141-.405-.133-.777-.349-1.094-.633-.317-.284-.573-.631-.75-1.019-.175-.388-.27-.808-.276-1.234-.024-.422.044-.845.197-1.239.153-.394.388-.751.69-1.047.303-.295.666-.523 1.063-.667.398-.143.822-.2 1.244-.167.701-.012 1.4.1 2.062.33zM79.22 5.388c-1.372-.059-2.73.294-3.899 1.014-1.17.72-2.096 1.772-2.662 3.023-.566 1.251-.744 2.643-.513 3.996.232 1.353.864 2.606 1.813 3.597.95.992 2.175 1.676 3.517 1.966 1.342.29 2.74.17 4.014-.342 1.275-.511 2.366-1.392 3.135-2.53.769-1.137 1.18-2.479 1.18-3.852.037-1.784-.635-3.51-1.87-4.799-1.235-1.288-2.93-2.034-4.715-2.073zm0 10.087c-.642.027-1.276-.138-1.823-.474-.547-.337-.98-.83-1.245-1.415-.264-.585-.348-1.236-.24-1.869.109-.633.404-1.218.848-1.682.444-.464 1.017-.784 1.645-.92.628-.135 1.281-.08 1.877.16.596.24 1.107.652 1.467 1.184.36.532.552 1.16.552 1.801.017.835-.297 1.643-.875 2.245-.578.603-1.371.952-2.206.97zM94.385 13.08c.636-.275 1.173-.738 1.541-1.326.368-.587.55-1.273.52-1.966 0-2.543-1.945-4.04-5.238-4.04l-3.757-.016v13.019h3.36v-5.287l2.726 5.287h3.692l-2.844-5.67zm-2.695-1.246h-.831V8.625h.882c.381.058.727.258.967.56.24.302.358.684.329 1.069.025.387-.1.768-.352 1.063-.252.295-.609.48-.995.517z"/>
</svg>
