<svg xmlns="http://www.w3.org/2000/svg" width="24" height="25" fill="none" viewBox="0 0 24 25">
    <path fill="#B5B5B5" d="M11.894.993c-2.897 0-5.675 1.151-7.723 3.2C2.122 6.24.97 9.018.97 11.915v.013c-.03 1.504.268 2.997.875 4.373.651 1.417 1.58 2.687 2.734 3.737l-.24.182.284.12-.007.309.272-.147.24.198.055-.305.303-.062-.204-.233.14-.275-.308.013-.129-.28-.18.25-.04-.01c-1.11-1.019-2.008-2.248-2.64-3.617-.547-1.266-.837-2.628-.855-4.007h.775c-.01.526.054 1.052.19 1.56l-.09.017.133.16-.099.182h.208l.082.19.12-.165.2.054-.052-.2.169-.12-.189-.086.009-.207-.185.095-.03-.027c-.124-.473-.181-.96-.172-1.448h1.647c-.01 1.631.54 3.217 1.56 4.49l-.12.08.182.099-.022.206.19-.082.146.147.056-.2.205-.022-.12-.168.11-.176-.207-.01-.068-.195-.12.13c-.97-1.223-1.497-2.739-1.497-4.3h11.011c-.066-.587-.274-1.15-.605-1.64-.331-.489-.777-.89-1.298-1.17l.032.128-.339-.095-.214.277-.136-.324h-.352l.168-.308-.223-.271.347-.06.073-.345.263.233.315-.156-.019.35.32.148-.168.12c.582.304 1.082.747 1.454 1.289.372.542.605 1.166.68 1.82h1.99c-.031-.886-.274-1.752-.71-2.525-.434-.773-1.049-1.43-1.79-1.916l.066.233-.519-.12-.31.434-.225-.48-.533.028.24-.48-.354-.399.522-.111.091-.526.413.337.467-.256v.533l.492.207-.348.27c.825.504 1.514 1.204 2.003 2.038.49.835.765 1.777.802 2.743h1.42c-.095-1.651-.697-3.234-1.725-4.53-.669-.777-1.5-1.396-2.436-1.815-.936-.419-1.952-.626-2.977-.607l.17.463-.6-.097-.315.522-.3-.532-.6.08.229-.567-.44-.424.586-.174.056-.608.502.349.512-.334.04.609.579.192-.252.229c1.044-.001 2.076.225 3.024.662.949.437 1.79 1.075 2.468 1.87 1.077 1.344 1.706 2.992 1.8 4.712h.592c-.026-1.658-.563-3.268-1.536-4.61-1.025-1.387-2.449-2.428-4.08-2.985v.227l-.258-.141-.226.186-.05-.29-.287-.06.195-.22-.13-.263.291.015.12-.265.171.24.286-.07-.08.283.129.1c1.67.576 3.123 1.648 4.164 3.074 1.001 1.396 1.554 3.063 1.586 4.78h2.316v-.26c.001-1.436-.28-2.859-.83-4.186-.55-1.328-1.355-2.534-2.37-3.55-1.017-1.015-2.223-1.82-3.551-2.369-1.328-.548-2.75-.83-4.187-.828z"/>
    <path fill="#B5B5B5" d="M7.743 15.286v2.018c0 .14-.034.245-.1.317-.067.072-.151.108-.253.108-.103 0-.186-.037-.251-.11-.063-.074-.095-.179-.095-.315v-1.998c0-.138.032-.242.095-.312.065-.07.148-.105.25-.105.103 0 .187.035.254.105.066.07.1.167.1.292zm-.346-.722c-.097 0-.18-.03-.25-.09-.069-.06-.103-.143-.103-.253 0-.099.035-.18.105-.243.072-.064.155-.097.248-.097.09 0 .17.03.24.087.07.058.106.143.106.253 0 .108-.034.192-.103.254-.068.06-.149.09-.243.09zm3.553-.023h-.828v2.724c0 .157-.035.274-.105.35-.07.076-.16.114-.271.114-.113 0-.205-.039-.277-.116-.07-.076-.105-.192-.105-.348v-2.724h-.828c-.13 0-.226-.028-.29-.084-.063-.058-.094-.134-.094-.228 0-.097.032-.174.097-.23.067-.056.162-.085.287-.085h2.415c.13 0 .228.03.291.087.065.058.097.134.097.228s-.032.17-.097.228c-.065.056-.162.084-.292.084zm2.408 1.94h-1.366c.001.158.033.298.094.419.063.12.146.212.248.273.104.062.219.093.343.093.084 0 .16-.01.228-.029.07-.02.137-.05.202-.092.065-.042.125-.088.18-.135.054-.048.124-.113.211-.195.036-.03.087-.046.154-.046.072 0 .13.02.174.06.044.038.066.094.066.165 0 .063-.024.138-.074.223-.05.083-.124.165-.225.243-.099.077-.224.14-.376.192-.15.05-.323.076-.52.076-.448 0-.797-.127-1.046-.383s-.373-.603-.373-1.041c0-.207.03-.398.092-.573.061-.178.151-.33.269-.456.117-.126.262-.222.434-.289.173-.068.364-.102.573-.102.273 0 .507.058.701.174.197.114.343.262.44.445.098.182.146.368.146.558 0 .175-.05.29-.15.342-.101.052-.243.077-.425.077zm-1.366-.397h1.266c-.017-.24-.082-.417-.194-.535-.111-.12-.258-.18-.44-.18-.174 0-.318.062-.43.183-.111.119-.179.296-.202.532zm5.037.78c0 .087-.027.18-.08.279-.05.099-.13.193-.238.284-.105.088-.24.16-.401.215-.162.054-.345.081-.548.081-.431 0-.768-.125-1.01-.376-.242-.252-.363-.59-.363-1.013 0-.286.055-.54.166-.76.11-.22.271-.39.48-.508.21-.122.461-.182.753-.182.18 0 .346.026.496.08.152.052.28.12.384.204.106.083.186.173.24.268.057.094.085.182.085.264 0 .084-.032.154-.095.212-.061.058-.136.087-.225.087-.058 0-.107-.014-.146-.043-.037-.031-.08-.08-.128-.146-.085-.13-.175-.227-.268-.292-.092-.065-.21-.097-.353-.097-.207 0-.373.081-.5.243-.125.16-.189.38-.189.66 0 .131.017.252.05.363.032.11.078.203.14.282.061.076.135.135.222.176.087.04.183.06.287.06.14 0 .26-.033.358-.098.1-.065.19-.164.266-.297.043-.078.089-.14.138-.184.05-.044.11-.067.182-.067.085 0 .156.033.212.098.056.064.085.134.085.207zm1.161-2.589v1.036c.089-.102.175-.183.258-.243.086-.06.18-.104.282-.133.102-.03.212-.046.33-.046.177 0 .334.038.47.113.139.075.247.184.325.327.05.084.083.177.1.281.017.103.026.221.026.356v1.338c0 .14-.033.245-.098.317-.063.072-.147.108-.253.108-.23 0-.345-.142-.345-.425v-1.18c0-.223-.033-.394-.1-.514-.066-.12-.193-.181-.378-.181-.125 0-.238.036-.338.107-.1.07-.173.167-.223.29-.037.103-.056.288-.056.554v.924c0 .138-.032.244-.095.317-.061.072-.147.108-.258.108-.23 0-.345-.142-.345-.425v-3.029c0-.142.03-.247.09-.317.06-.072.146-.108.255-.108.11 0 .197.036.258.108.063.072.095.177.095.317zM7.662 19.601v2.153h1.215c.097 0 .17.024.222.071.052.047.079.106.079.178s-.026.131-.077.177c-.051.045-.126.067-.224.067H7.43c-.13 0-.225-.03-.283-.087-.056-.058-.084-.151-.084-.28V19.6c0-.12.027-.212.08-.272.056-.06.128-.091.216-.091.09 0 .163.03.218.09.057.06.085.15.085.273zm3.265 2.386c-.133.103-.262.181-.387.234-.124.05-.263.076-.418.076-.141 0-.266-.027-.373-.082-.107-.057-.189-.133-.246-.229-.058-.095-.087-.199-.087-.31 0-.151.048-.28.143-.386.096-.106.227-.177.394-.214l.26-.054c.139-.028.257-.054.355-.077.1-.024.207-.053.323-.087-.007-.145-.036-.251-.089-.319-.05-.068-.158-.102-.32-.102-.14 0-.246.02-.317.058-.07.04-.131.098-.182.176-.05.078-.086.13-.107.155-.02.024-.065.036-.133.036-.062 0-.116-.02-.162-.058-.044-.04-.066-.092-.066-.153 0-.097.034-.192.103-.283.068-.091.175-.167.32-.226.146-.06.327-.089.543-.089.242 0 .433.03.572.087.138.056.236.147.292.27.058.124.087.288.087.493 0 .129 0 .239-.002.329 0 .09 0 .19-.002.3 0 .104.017.212.05.325.035.112.053.184.053.216 0 .057-.027.109-.081.156-.052.045-.112.068-.18.068-.056 0-.112-.026-.167-.078-.055-.054-.114-.132-.176-.233zm-.036-.798c-.08.03-.198.062-.353.095-.154.033-.26.057-.319.073-.06.015-.116.045-.17.09-.053.045-.08.108-.08.188 0 .084.031.155.095.214.063.058.146.087.248.087.109 0 .209-.023.3-.07.093-.049.161-.11.204-.186.05-.084.075-.22.075-.412v-.079zm1.554-1.636v.841c.104-.107.21-.19.317-.246.107-.058.24-.087.4-.087.182 0 .342.044.48.131.138.087.245.212.32.378.077.164.116.359.116.585 0 .167-.022.32-.065.46-.042.139-.103.26-.184.361-.08.103-.179.182-.294.239-.115.055-.241.082-.38.082-.085 0-.164-.01-.24-.03-.074-.02-.137-.046-.19-.079-.052-.033-.097-.068-.135-.103-.036-.035-.085-.087-.145-.157v.055c0 .103-.025.182-.075.236-.05.052-.113.078-.19.078-.078 0-.14-.026-.187-.078-.046-.054-.069-.133-.069-.236v-2.406c0-.112.023-.196.067-.252.046-.058.109-.087.19-.087.084 0 .15.027.195.083.046.053.069.13.069.232zm.026 1.636c0 .22.05.389.15.507.1.117.232.175.395.175.139 0 .258-.06.357-.18.101-.12.152-.293.152-.518 0-.145-.021-.27-.063-.375-.042-.105-.1-.186-.178-.242-.076-.058-.166-.087-.268-.087-.105 0-.198.029-.28.087-.083.056-.147.139-.194.248-.047.108-.07.236-.07.385zm3.822.388c0 .152-.037.282-.11.391-.075.108-.184.19-.33.247-.143.055-.32.082-.526.082-.198 0-.368-.03-.509-.09-.141-.061-.245-.136-.313-.227-.067-.091-.1-.183-.1-.274 0-.06.021-.112.064-.155s.098-.065.164-.065c.057 0 .102.014.133.042.03.029.06.068.088.12.057.098.124.171.202.22.08.048.187.072.323.072.11 0 .2-.024.27-.073.072-.05.108-.106.108-.17 0-.096-.037-.167-.111-.211-.073-.044-.194-.087-.362-.127-.19-.047-.344-.096-.464-.147-.118-.053-.213-.122-.284-.206-.072-.085-.107-.19-.107-.313 0-.11.033-.215.099-.313s.162-.176.29-.234c.13-.06.285-.089.466-.089.143 0 .27.015.384.045.114.03.209.069.284.119.077.05.135.105.174.165.04.06.06.12.06.178 0 .063-.021.115-.064.155-.042.04-.102.06-.18.06-.056 0-.105-.015-.145-.048-.04-.032-.084-.08-.135-.145-.042-.054-.091-.097-.148-.13-.056-.032-.133-.048-.23-.048-.1 0-.182.022-.248.065-.066.042-.099.094-.099.157 0 .058.024.106.073.144.048.036.114.066.196.09.082.025.195.054.339.09.17.041.31.09.417.149.11.057.192.126.247.205.056.079.084.168.084.269z"/>
</svg>
