<svg xmlns="http://www.w3.org/2000/svg" width="36" height="25" fill="none" viewBox="0 0 36 25">
    <path fill="#B5B5B5" d="M3.84 10.993c.497 0 .9-.127.9-.284 0-.158-.403-.285-.9-.285s-.9.127-.9.285c0 .157.403.284.9.284zM2.54 12.388c.498 0 .9-.13.9-.29 0-.16-.402-.29-.9-.29-.496 0-.9.13-.9.29 0 .16.404.29.9.29zM2.54 14.05c.609 0 1.101-.158 1.101-.353 0-.194-.492-.351-1.1-.351-.608 0-1.1.157-1.1.351 0 .195.492.352 1.1.352zM4.011 15.891c.702 0 1.27-.179 1.27-.4 0-.22-.568-.399-1.27-.399-.702 0-1.27.179-1.27.4 0 .22.568.4 1.27.4zM25.628 17.385c.69 0 1.25-.125 1.25-.28 0-.154-.56-.28-1.25-.28s-1.25.126-1.25.28c0 .155.56.28 1.25.28zM7.12 17.224c.762 0 1.38-.178 1.38-.4 0-.22-.618-.399-1.38-.399-.762 0-1.38.18-1.38.4 0 .22.618.4 1.38.4zM21.059 18.184c.762 0 1.38-.178 1.38-.4 0-.22-.618-.399-1.38-.399-.762 0-1.38.18-1.38.4 0 .22.618.4 1.38.4zM33.26 15.417c-.203.052-.41.077-.62.075-.496 0-.9-.12-.9-.27 0-.148.404-.268.9-.268.177-.001.353.016.525.05-.035-.294-.052-.59-.049-.888V9.574c-.007-.521-.105-1.037-.29-1.525-.155-.473-.428-.898-.794-1.235-.51-.435-1.13-.721-1.792-.828-.942-.149-1.895-.216-2.848-.199-.688-.004-1.375.051-2.053.165-.52.073-1.023.23-1.492.465-.455.236-.85.572-1.157.983-.307.474-.516 1.004-.615 1.56l3.768.397c.096-.362.311-.682.61-.91.446-.235.95-.343 1.453-.31.376-.039.753.065 1.056.291.23.286.338.652.3 1.017-.456.182-.922.338-1.395.469-.44.12-1.4.328-2.88.625-.94.107-1.826.5-2.538 1.123-.469.53-.714 1.221-.687 1.929-.006.399.077.794.242 1.157.165.363.408.686.712.944.793.62 1.789.923 2.793.852.83.016 1.656-.128 2.431-.426.12-.048.229-.106.341-.167.027-.019.056-.034.087-.047.404-.237.778-.523 1.112-.851.03.22.075.439.136.653 0 .014.015.035.02.05.613.018 1.088.134 1.088.276 0 .12-.346.223-.826.261l.008.018h3.7c-.142-.287-.258-.586-.347-.894zm-3.998-3.36c.016.413-.066.825-.24 1.2-.186.334-.465.605-.804.78-.374.212-.796.322-1.226.32-.343.024-.684-.081-.953-.296-.103-.094-.186-.21-.242-.337-.056-.128-.085-.266-.085-.406s.029-.278.085-.406c.056-.128.139-.243.242-.338.456-.314.974-.53 1.52-.63.588-.149 1.153-.32 1.696-.513l.007.626zM19.75 15.342V5.973h-3.557V7.44c-.362-.536-.843-.98-1.406-1.299-.596-.282-1.252-.416-1.91-.392-.548-.02-1.093.077-1.599.287-.505.21-.96.526-1.333.927-.81.991-1.211 2.254-1.122 3.53-.056 1.151.248 2.291.87 3.261.344.539.819.98 1.38 1.285.563.303 1.194.459 1.833.452.58.014 1.154-.107 1.678-.355.524-.249.982-.617 1.338-1.075v1.504c.055.543-.09 1.088-.407 1.532-.162.156-.355.276-.566.351-.212.076-.437.106-.661.088-.374.014-.742-.087-1.056-.29-.223-.178-.375-.43-.43-.71l-3.689-.42c-.013.212-.018.38-.018.505-.016.46.077.916.27 1.333.194.418.484.783.845 1.067 1.24.723 2.677 1.036 4.105.896.78.01 1.559-.069 2.321-.233.607-.124 1.178-.383 1.672-.757.454-.367.815-.835 1.056-1.368.262-.556.398-1.163.396-1.778l-.01-.44zm-8.532 2.684c-.899 0-1.627-.18-1.627-.4 0-.222.728-.4 1.627-.4s1.627.178 1.627.4c0 .22-.726.4-1.627.4zm4.252-5.669c-.151.168-.335.303-.541.396-.206.093-.43.142-.655.144-.226.002-.45-.044-.657-.134-.207-.09-.394-.222-.547-.388-.34-.457-.503-1.023-.457-1.59-.055-.617.097-1.233.433-1.753.14-.172.318-.309.52-.4.202-.092.422-.135.644-.128.235-.002.467.049.68.148.214.1.402.245.552.427.365.472.545 1.062.504 1.657.046.58-.123 1.158-.476 1.621zm.499 6.148c-.899 0-1.628-.197-1.628-.44 0-.242.73-.44 1.628-.44.899 0 1.627.197 1.627.44 0 .244-.728.44-1.627.44z"/>
</svg>
