<svg xmlns="http://www.w3.org/2000/svg" width="73" height="25" fill="none" viewBox="0 0 73 25">
    <path fill="#B5B5B5" d="M65.985 5.664c.288.166.629.211.95.126.32-.086.593-.295.76-.582.109-.19.166-.405.166-.623 0-.22-.058-.434-.168-.623-.109-.19-.266-.347-.455-.457-.19-.11-.404-.168-.623-.169-.219 0-.433.058-.623.167-.19.11-.347.267-.457.456-.082.142-.136.298-.158.461-.022.163-.01.328.032.486.042.159.115.307.215.437.1.13.225.24.367.321h-.006zm-.109-1.815c.17-.17.394-.277.634-.3.24-.024.481.036.682.17.2.134.348.333.418.563.07.231.057.479-.035.702-.092.222-.259.406-.471.52-.213.113-.458.15-.695.102-.236-.047-.449-.174-.602-.36-.153-.187-.236-.42-.236-.662-.002-.137.025-.273.078-.4.053-.126.131-.24.23-.335h-.003z"/>
    <path fill="#B5B5B5" d="M66.332 4.684h.129c.072-.004.143.02.199.067.08.088.148.187.201.294l.12.21h.265l-.161-.262c-.05-.085-.107-.165-.17-.24-.028 0-.054-.007-.077-.02-.023-.013-.042-.033-.056-.056-.013-.023-.02-.05-.02-.077 0-.026.008-.053.022-.076.014-.023.033-.042.057-.054.023-.013.05-.02.077-.019.026 0 .052.009.075.023s.041.034.054.057c.035-.033.063-.074.082-.118.018-.045.027-.094.026-.142-.001-.07-.023-.138-.063-.195-.04-.058-.096-.103-.16-.13-.114-.03-.232-.043-.349-.037h-.466V5.25h.218l-.003-.567zm0-.59h.253c.091-.007.182.009.266.045.026.016.046.04.06.067.013.028.018.059.015.089.002.03-.004.06-.018.088-.014.027-.034.05-.06.067-.076.038-.16.055-.246.049h-.265l-.005-.404zM64.796 6.894c.038.606-.033 1.214-.212 1.794l-2.188 7.247c-.11.33-.246.651-.406.96h2.172c.85-.029 1.674-.308 2.366-.802.693-.495 1.223-1.183 1.526-1.978l1.2-3.938c.116-.395.138-.812.065-1.217-.074-.405-.242-.788-.49-1.117-.245-.305-.558-.55-.913-.717-.355-.167-.744-.25-1.136-.243l-1.984.011z"/>
    <path fill="#B5B5B5" d="M65.057 6.976c-.028-.852-.308-1.676-.805-2.368-.458-.556-1.037-1-1.692-1.298-.656-.299-1.371-.444-2.091-.424H44.892c-1.297.062-2.552.475-3.631 1.196-1.08.72-1.943 1.72-2.498 2.894-.117.247-.218.501-.302.762l-2.25 7.32c-.186.586-.267 1.2-.24 1.814.029.834.305 1.641.792 2.319.415.542.952.979 1.569 1.273.616.294 1.293.438 1.976.419h14.655l.96-.013c1.315-.058 2.591-.457 3.704-1.158 1.114-.701 2.025-1.68 2.645-2.84.158-.308.29-.63.397-.96l2.145-7.092c.189-.595.27-1.22.243-1.844zM44.044 19.25h-3.72c-.451.024-.902-.069-1.309-.27-.406-.2-.754-.5-1.01-.875-.256-.373-.411-.806-.452-1.258-.04-.45.037-.905.223-1.318l2.336-7.431c.355-1.013 1.008-1.896 1.872-2.533.864-.637 1.9-.999 2.973-1.038h7.132c.01 0 .02.002.03.007.009.005.016.011.022.02.006.008.01.017.012.027.001.01 0 .02-.002.03l-1.13 3.536c-.004.013-.012.024-.023.032s-.024.012-.038.013h-7.127c-.013 0-.026.004-.038.012-.01.008-.019.019-.023.032l-2.268 7.252c-.002.01-.003.02-.001.029.001.01.005.019.011.027.006.008.014.015.023.02.008.004.018.006.028.006h3.399c.013 0 .027-.004.038-.012.01-.008.019-.02.023-.032l.623-2.049c.003-.01.004-.02.002-.03-.002-.01-.006-.019-.012-.027s-.013-.015-.022-.02c-.009-.004-.02-.006-.03-.007h-1.498c-.01 0-.02-.002-.029-.006-.009-.005-.017-.011-.023-.02-.006-.007-.01-.017-.011-.027-.002-.01-.001-.02.002-.03l.924-2.862c.004-.014.012-.025.023-.033.01-.008.024-.012.038-.012h5.215c.01 0 .02.002.029.007.009.004.017.01.023.019.006.008.01.017.012.027.001.01 0 .02-.003.03l-1.549 5.04c-.316 1.022-.933 1.924-1.77 2.588-.839.665-1.858 1.06-2.925 1.136zM63.35 8.195l-2.196 7.206c-.378 1.067-1.06 2-1.964 2.683-.903.682-1.987 1.085-3.117 1.157h-3.42c-2.103 0-3.24-1.72-2.575-3.823l2.225-7.235c.364-1.04 1.034-1.945 1.922-2.598.888-.652 1.953-1.02 3.054-1.056h3.418c.455-.043.914.033 1.33.221.417.189.777.483 1.044.853.268.37.434.805.483 1.26.048.454-.024.914-.208 1.332h.004z"/>
    <path fill="#B5B5B5" d="M59.56 8.188h-3.47c-.013 0-.026.004-.037.013-.011.008-.02.02-.023.032l-2.273 7.268c-.003.01-.004.02-.002.029.001.01.005.019.01.027.007.008.014.015.023.02.009.004.019.006.029.006h3.497c.013 0 .027-.004.038-.012.01-.008.019-.02.023-.032l2.246-7.267c.003-.01.005-.02.003-.03-.002-.01-.006-.02-.012-.028s-.014-.015-.023-.02c-.009-.004-.019-.006-.029-.006zM8.49 6.894c-.783.03-1.536.307-2.152.79-.616.483-1.064 1.148-1.28 1.9l-1.264 4.12c-.113.388-.134.797-.061 1.195.073.398.237.773.48 1.096.243.295.551.53.9.687.348.157.728.232 1.11.22h29.824c-.027-.621.055-1.242.24-1.835l2.28-7.41c.084-.261.185-.516.303-.763H8.49zm2.048 6.487h-1.44c-.013 0-.027.005-.038.013-.01.008-.02.02-.023.033l-.44 1.404c-.005.013-.013.025-.024.033-.011.008-.025.013-.039.013H7.177c-.01 0-.02-.003-.03-.008-.008-.004-.016-.01-.022-.019-.006-.008-.01-.018-.011-.027-.002-.01-.001-.02.002-.03l1.8-5.843c.004-.013.012-.024.023-.032s.024-.013.038-.013h2.978c.182-.01.363.028.525.108.163.08.303.202.405.352.103.15.166.323.182.504.016.181-.015.364-.09.53l-.467 1.49c-.144.417-.409.78-.76 1.046-.35.266-.773.421-1.212.446zm6.206 1.514h-4.422l1.846-5.948c.004-.013.012-.024.023-.032.011-.009.025-.013.038-.013h1.363c.01 0 .02.002.03.007.009.004.016.01.023.019.005.008.01.017.011.027.002.01.002.02-.001.03l-1.32 4.32c-.003.01-.004.02-.002.03.002.01.006.02.012.027.006.009.014.015.023.02.009.004.019.007.029.007h1.31c.015 0 .028-.005.04-.013.01-.008.019-.02.023-.033l.446-1.4c.005-.014.013-.025.024-.034.012-.008.025-.012.04-.012h1.36c.011 0 .021.002.03.007.01.004.017.011.023.02.007.007.01.017.012.027.002.01.002.02-.002.03l-.9 2.868c-.005.012-.013.024-.023.032s-.023.013-.036.014zm6.787-4.497l-1.364 4.44c-.004.013-.012.025-.023.033-.01.008-.024.012-.038.012h-1.37c-.01 0-.019-.003-.028-.007-.009-.005-.016-.012-.022-.02-.006-.008-.01-.017-.012-.027-.002-.01 0-.02.002-.03l.524-1.667c.003-.01.003-.02 0-.03-.001-.009-.005-.018-.01-.026-.007-.008-.015-.014-.024-.018-.009-.005-.018-.007-.028-.006h-1.385c-.013 0-.026.004-.037.011-.01.008-.019.02-.023.032l-.556 1.743c-.004.013-.012.024-.023.032s-.024.013-.038.013h-1.36c-.01 0-.02-.003-.028-.007-.01-.005-.017-.012-.023-.02-.006-.008-.01-.018-.012-.027-.002-.01 0-.02.002-.03l1.346-4.395c.143-.414.406-.777.755-1.042.35-.266.769-.423 1.206-.45h1.545c.18-.01.36.028.523.108.162.08.3.2.403.35.103.148.166.321.183.501.017.18-.012.362-.085.527zm4.85 1.492c-.136.406-.387.763-.722 1.029-.336.265-.742.428-1.168.466-.014 0-.026.005-.037.013-.01.008-.019.019-.023.032l-.43 1.41c-.005.013-.014.024-.025.032-.01.008-.024.013-.038.013H24.57c-.01 0-.02-.002-.029-.007-.009-.004-.017-.01-.023-.019-.006-.008-.01-.017-.012-.027-.001-.01 0-.02.003-.03l.407-1.32c.003-.01.005-.02.003-.03-.002-.009-.005-.018-.011-.026-.006-.008-.014-.015-.022-.02-.01-.004-.02-.007-.03-.007-.175-.006-.346-.055-.498-.142-.153-.087-.282-.21-.375-.359-.094-.148-.15-.317-.165-.492-.013-.175.015-.351.085-.513l.899-2.938c.004-.013.012-.025.023-.033.01-.008.024-.013.038-.013h1.357c.01 0 .02.002.029.007.009.004.017.01.023.019.006.008.01.017.01.027.003.01.002.02 0 .03-.12.398-.796 2.583-.888 2.918h1.509c.097-.325.81-2.64.91-2.955.003-.014.012-.025.023-.033.012-.008.025-.013.039-.013h1.336c.01 0 .02.002.03.007.009.004.017.011.023.02.006.007.01.017.012.027.002.01.001.02-.002.03l-.894 2.897zm1.771-2.977h1.726l-.54 1.745h-1.713l.527-1.745zm5.691 2.967l-.902 2.969c-.004.013-.012.024-.023.033-.01.008-.024.012-.038.011h-1.39c-.01 0-.02-.001-.028-.006-.01-.004-.017-.01-.023-.019-.006-.008-.01-.017-.012-.027-.002-.01 0-.02.002-.03.12-.398.69-2.272.888-2.903h-1.476c-.162.498-.817 2.624-.915 2.939-.004.012-.013.023-.024.031-.011.008-.024.012-.038.012h-1.359c-.01 0-.02-.002-.03-.007-.008-.004-.016-.01-.022-.019-.005-.008-.01-.017-.011-.027-.002-.01-.002-.02.002-.03l.889-2.93c.143-.415.405-.778.754-1.044.349-.265.769-.422 1.206-.45h1.612c.175.005.347.052.5.138.151.087.28.21.373.358.093.149.148.318.16.492.01.175-.022.35-.095.51z"/>
    <path fill="#B5B5B5" d="M20.06 11.905h1.5l.471-1.526h-1.508l-.463 1.527zM9.515 11.91h1.5l.471-1.526H9.978l-.463 1.526z"/>
</svg>
