<svg xmlns="http://www.w3.org/2000/svg" width="88" height="25" fill="none" viewBox="0 0 88 25">
    <path fill="#B5B5B5" d="M17.335 2.973c-1.388 0-2.757.324-3.996.948-1.24.624-2.316 1.53-3.142 2.645-.826 1.115-1.38 2.409-1.615 3.776-.236 1.368-.149 2.771.256 4.099l.48-.694c.621-.91 1.229-1.83 1.822-2.76l.439-.698c.147-.233.29-.467.431-.702.289-.468.564-.943.84-1.417.137-.24.265-.48.399-.72.133-.24.265-.48.389-.72.123-.24.258-.48.372-.72l.353-.73.025-.053c.095-.19.262-.337.464-.406.202-.07.423-.056.616.037.145.078.265.195.346.339.082.143.12.306.113.47 0 .422-.084.86-.11 1.292-.027.432-.057.868-.075 1.302-.033.868-.055 1.735-.043 2.597.012.861.047 1.72.14 2.557.042.41.106.818.19 1.222.07.362.185.715.343 1.048.048.105.115.199.198.278.052.036.017.019.044.021 0 0 .02-.007.032 0l.027-.01h.015c.017-.006.033-.014.05-.022l.068-.046c.131-.1.252-.213.36-.337.263-.302.503-.623.72-.96.228-.35.445-.72.655-1.086.419-.744.81-1.516 1.185-2.298.186-.391.368-.785.547-1.18.177-.394.355-.798.518-1.188.067-.16.184-.294.334-.382.15-.087.324-.124.497-.104.172.02.333.096.458.216.126.12.21.278.237.45 0 .102.017.24.028.352l.04.367c.031.247.067.492.107.737.083.49.187.978.317 1.457.128.478.29.946.487 1.4.193.453.445.878.75 1.264.017.021.03.046.038.073.008.027.01.055.007.083-.003.028-.011.055-.025.08-.013.024-.031.045-.053.063-.038.031-.087.048-.136.048-.05 0-.097-.017-.135-.048-.413-.355-.776-.762-1.08-1.212-.303-.444-.572-.91-.807-1.394-.157-.32-.298-.646-.432-.976-.089.193-.176.386-.268.578-.386.805-.79 1.604-1.233 2.393-.223.395-.456.786-.71 1.175-.258.404-.546.79-.861 1.152-.182.209-.385.398-.607.565-.061.045-.133.091-.206.136l-.15.078-.085.037h-.01l-.047.018-.032.01-.065.02c-.044.015-.085.029-.13.04-.096.022-.194.037-.293.044-.217.016-.434-.011-.64-.08-.196-.068-.378-.171-.537-.304-.25-.213-.453-.474-.6-.767-.225-.46-.389-.947-.488-1.449-.098-.457-.17-.92-.22-1.386-.1-.913-.138-1.814-.15-2.711V9.593l-.48.912c-.133.248-.268.497-.408.74l-.413.737c-.556.978-1.132 1.943-1.72 2.9-.38.62-.764 1.232-1.157 1.844.844 1.285 2.006 2.329 3.374 3.03 1.368.7 2.896 1.033 4.431.967 1.536-.066 3.027-.53 4.33-1.345 1.303-.816 2.372-1.956 3.102-3.309.73-1.353 1.096-2.872 1.063-4.409-.033-1.536-.464-3.038-1.252-4.358-.787-1.32-1.904-2.413-3.24-3.172-1.337-.76-2.848-1.158-4.385-1.159l-.001.002zM33.895 15.064V9.16h-.143l-1.89 5.904h-.466L29.51 9.16h-.145v5.904h-.78V8.539h1.392l1.652 5.18 1.653-5.18h1.391v6.525h-.778zM35.825 9.384v-.84h.853v.84h-.853zm.012 5.68v-5.032h.827v5.032h-.827zM41.707 13.418c0 .986-.374 1.73-2 1.73-2.052 0-2.169-1.166-2.169-2.6 0-1.434.12-2.601 2.169-2.601 1.626 0 2 .746 2 1.729h-.774c0-.796-.277-1.186-1.226-1.186-1.271 0-1.343.69-1.343 2.058 0 1.37.072 2.057 1.343 2.057.949 0 1.221-.39 1.226-1.187h.774zM43.306 10.556c.403-.306.874-.51 1.373-.592.1-.01.196-.014.295-.014.12 0 .252 0 .387.017l-.058.594c-.127-.01-.24-.015-.36-.015-.101-.001-.202.005-.303.019-.455.081-.885.268-1.255.546v3.953h-.826V10.03h.657l.09.525zM50.018 12.548c0 1.44-.12 2.6-2.195 2.6-2.075 0-2.196-1.166-2.196-2.6 0-1.434.12-2.601 2.196-2.601s2.195 1.167 2.195 2.601zm-3.564 0c0 1.378.073 2.056 1.364 2.056 1.292 0 1.373-.667 1.373-2.056 0-1.388-.073-2.058-1.368-2.058-1.295 0-1.369.68-1.369 2.058zM51.535 16.233c.302.027.72.056 1.173.056 1.274 0 1.44-.336 1.44-1.687-.432.268-.922.427-1.43.465-1.841.037-1.946-.96-1.946-2.52s.103-2.607 1.884-2.607c.571.03 1.122.223 1.587.556l.074-.463h.658v4.473c0 1.807-.408 2.358-2.069 2.358-.486-.003-.973-.041-1.454-.113l.083-.518zm2.614-5.28c-.367-.262-.798-.421-1.248-.461-1.224 0-1.3.682-1.3 2.055 0 1.343.075 1.97 1.3 1.97.444-.04.872-.188 1.248-.428v-3.136zM59.487 15.064l-.074-.462c-.445.326-.974.519-1.524.554-1.842.029-1.947-1.012-1.947-2.606 0-1.595.104-2.612 1.92-2.612.555.034 1.09.217 1.55.528l.075-.435h.658v5.033h-.658zm-.169-4.143c-.376-.24-.804-.387-1.248-.428-1.225 0-1.3.684-1.3 2.058 0 1.374.075 2.055 1.3 2.055.45-.04.88-.198 1.248-.46V10.92zM61.886 10.462c.418-.295.906-.475 1.416-.522.848-.025 1.279.192 1.498.56.434-.315.945-.508 1.478-.56 1.734-.056 1.834.83 1.834 2.055v3.069h-.827v-3.018c0-1.045-.07-1.56-1.188-1.56-.422.046-.824.2-1.168.448.085.363.12.735.103 1.107v3.018h-.72V12.04c0-1.045-.068-1.56-1.188-1.56-.41.044-.8.192-1.136.43v4.143h-.827v-5.033h.658l.067.44zM69.153 9.384v-.84h.852v.84h-.852zm.013 5.68v-5.032h.826v5.032h-.826zM71.746 10.465c.457-.299.982-.48 1.526-.525 1.841-.056 1.947.83 1.947 2.055v3.069h-.827v-3.018c0-1.045-.074-1.56-1.3-1.56-.445.04-.874.19-1.249.432v4.14h-.826v-5.032h.657l.072.44zM76.844 16.233c.302.027.72.056 1.173.056 1.273 0 1.44-.336 1.44-1.687-.432.268-.922.427-1.429.465-1.842.037-1.945-.96-1.945-2.52s.1-2.607 1.882-2.607c.571.03 1.123.223 1.588.556l.073-.463h.658v4.473c0 1.807-.408 2.358-2.068 2.358-.487-.003-.973-.041-1.455-.113l.083-.518zm2.615-5.28c-.368-.262-.799-.421-1.249-.461-1.223 0-1.3.682-1.3 2.055 0 1.343.075 1.97 1.3 1.97.445-.04.873-.188 1.249-.428v-3.136z"/>
</svg>
