<svg xmlns="http://www.w3.org/2000/svg" width="59" height="25" fill="none" viewBox="0 0 59 25">
    <g fill="#B5B5B5" clip-path="url(#clip0)">
        <path d="M48.527 9.698c-2.58.18-1.44 3.54 1.44 3.36 2.82-.18 1.38-3.54-1.44-3.36z"/>
        <path d="M47.446 7.598c-4.62 0-8.34 3.72-8.34 8.34 0 4.62 3.72 8.4 8.34 8.4 4.62 0 8.34-3.72 8.34-8.34.06-4.68-3.72-8.4-8.34-8.4zm0 15.84c-4.14 0-7.5-3.36-7.5-7.5 0-4.14 3.36-7.5 7.5-7.5 4.14 0 7.5 3.36 7.5 7.5 0 4.14-3.36 7.5-7.5 7.5zm-.24-21.66c-1.98 1.5-1.62 3.78-1.62 3.78s-1.26-3.24-2.88-5.22c-.24 2.58.6 5.94.6 5.94s-1.02-2.1-3.54-2.22c2.04 1.2 2.88 3.3 3.06 3.9 1.26-.78 2.64-1.2 4.08-1.26-.18-.54-.72-2.76.3-4.92z"/>
        <path d="M4.246 16.778v1.74h-.72v-4.5h1.56c.54 0 .9.12 1.2.36.24.24.42.6.42 1.02 0 .42-.12.78-.42 1.02-.24.24-.66.36-1.14.36h-.9zm1.68-1.38c0-.24-.06-.48-.24-.6-.12-.12-.36-.18-.66-.18h-.78v1.56h.72c.66 0 .96-.24.96-.78zm3.72 3.12l-1.14-1.8h-.54v1.8h-.72v-4.5h1.62c.54 0 .9.12 1.2.36.24.24.42.6.42 1.02 0 .36-.12.66-.3.84-.18.24-.48.36-.84.42l1.2 1.86h-.9zm-1.62-2.28h.78c.6 0 .9-.24.9-.78 0-.24-.06-.42-.24-.6-.12-.12-.36-.18-.66-.18h-.78v1.56zm5.76 1.32h-1.92l-.36.96h-.78l1.68-4.44h.84l1.68 4.44h-.78l-.36-.96zm-.18-.54l-.72-2.1-.72 2.1h1.44zm4.98-2.64c.36.24.6.66.72 1.08h-.78c-.12-.24-.24-.42-.48-.6-.24-.12-.54-.24-.78-.24s-.54.06-.78.18-.42.3-.54.54c-.12.24-.18.54-.18.84 0 .3.06.6.18.9.12.24.3.42.54.54.24.12.54.18.78.18.36 0 .72-.12.96-.36s.42-.54.48-.96h-1.68v-.54h2.28v.72c-.06.3-.18.66-.36.9-.06.42-.36.66-.66.78-.3.18-.66.24-1.02.24-.42 0-.78-.12-1.14-.3-.36-.18-.6-.48-.78-.84-.36-.78-.36-1.62 0-2.4.18-.36.42-.6.78-.84.36-.18.78-.3 1.14-.3.54.12.96.24 1.32.48zm5.94-.3v4.44h-.72v-3.36l-1.26 3.36h-.66l-1.32-3.36v3.36h-.72v-4.44h.9l1.5 3.54 1.44-3.54h.84zm3.6 3.48h-1.92l-.36.96h-.78l1.68-4.44h.84l1.68 4.44h-.78l-.36-.96zm-.24-.54l-.72-2.1-.72 2.1h1.44zm4.5-3v.6h-1.26v3.9h-.72v-3.9h-1.32v-.6h3.3zm1.08 0v4.5h-.72v-4.5h.72zm4.14.36c.36.3.66.72.72 1.14h-.78c-.12-.24-.3-.48-.48-.66-.24-.18-.54-.24-.84-.24-.24 0-.48.06-.72.18s-.36.36-.48.54c-.24.54-.24 1.14 0 1.74.12.24.3.42.48.54.24.12.48.18.72.18.3 0 .6-.06.84-.24s.42-.36.48-.66h.78c-.12.48-.36.84-.72 1.14-.36.3-.84.42-1.38.42-.42 0-.78-.12-1.14-.3-.3-.18-.6-.48-.78-.84-.36-.78-.36-1.62 0-2.4.18-.36.42-.6.78-.84.36-.18.72-.3 1.14-.3.54.18 1.02.36 1.38.6zm4.2 2.4v1.74h-.72v-4.5h1.56c.54 0 .9.12 1.2.36.24.24.42.6.42 1.02 0 .42-.12.78-.42 1.02-.24.24-.66.36-1.14.36h-.9zm1.62-1.38c0-.24-.06-.48-.24-.6-.12-.12-.36-.18-.66-.18h-.72v1.56h.72c.6 0 .9-.24.9-.78zm1.98 2.58h1.56v.54h-2.28v-4.5h.72v3.96zm4.92-.42h-1.92l-.36.96h-.78l1.68-4.44h.84l1.68 4.44h-.78l-.36-.96zm-.24-.54l-.72-2.1-.72 2.1h1.44zm4.26-3l-1.5 2.88v1.62h-.72v-1.62l-1.5-2.88h.84l1.02 2.1 1.02-2.1h.84z"/>
    </g>
    <defs>
        <clipPath id="clip0">
            <path fill="#fff" d="M0 0H57.6V24H0z" transform="translate(0.886719 0.337646)"/>
        </clipPath>
    </defs>
</svg>
