<svg xmlns="http://www.w3.org/2000/svg" width="64" height="25" fill="none" viewBox="0 0 64 25">
    <path fill="#B5B5B5" fill-rule="evenodd" d="M56.572 4.55h-2.134v9.423h-1.114V4.547H51.19v-.96h5.381v.964zm-6.528 0h-3.621v3.543h2.682v.948h-2.682v3.995h3.798v.947h-4.914V3.593h4.743l-.006.958zm-8.27.36c-.416-.28-.917-.407-1.416-.36h-1.126v3.507h.639c.619.054 1.238-.096 1.764-.427.204-.183.361-.413.458-.67.097-.257.13-.533.099-.806.026-.226.002-.454-.07-.67-.073-.215-.191-.411-.348-.576v.003zm-.898-1.32c.333-.013.665.044.975.165.31.122.59.307.825.544.362.457.581 1.012.629 1.593.048.582-.077 1.165-.359 1.676-.28.437-.714.753-1.217.885v.03c.563.13 1.054.469 1.377.947.303.5.456 1.079.438 1.664.03.398-.028.798-.17 1.171-.14.373-.362.711-.649.99-.726.535-1.62.79-2.52.72h-2.094V3.592l2.765-.002zm-.518 5.413h-1.126v4.025h1.126c.552.04 1.1-.127 1.535-.468.19-.191.335-.421.426-.675.091-.253.126-.523.102-.79.048-.563-.124-1.122-.48-1.56-.213-.194-.464-.34-.736-.432-.273-.09-.561-.124-.847-.098v-.002zM7.433 4.563c-.17.177-.266.414-.266.66 0 .246.096.482.266.66.175.157.403.243.638.24.238.002.468-.084.648-.24.09-.084.16-.187.206-.3.046-.114.067-.236.062-.359.007-.124-.013-.248-.06-.363-.046-.116-.117-.22-.208-.304-.18-.157-.41-.243-.648-.24-.237 0-.466.09-.638.253v-.007zm.638-1.107c.453-.004.89.163 1.225.468.156.136.281.303.368.49.118.256.18.535.18.817 0 .282-.062.56-.18.816-.092.187-.22.353-.378.489-.336.295-.768.458-1.215.458-.447-.003-.88-.165-1.217-.458-.152-.14-.277-.305-.369-.489-.129-.253-.193-.533-.188-.817-.004-.287.06-.57.188-.827.093-.186.221-.352.378-.488.335-.291.764-.452 1.208-.451v-.008zm.518 4.346v6.188h-1.08V7.802h.01c.174.053.355.08.537.079.18.002.36-.022.533-.072v-.007zM36.901 4.55h-2.118v9.423h-1.127V4.547h-2.121v-.96h5.371l-.005.964zm-6.737 0h-3.338v3.543h2.501v.948h-2.5v4.932H25.71V3.593h4.454v.958zm2.76 13.022c.021.01.04.022.058.036.013.012.023.027.029.043.004.01.007.02.008.029l-1 1.537v1.051c.001.018-.001.036-.007.052-.006.017-.015.032-.028.045-.012.012-.028.022-.044.028-.017.006-.035.008-.053.006h-.042c-.082 0-.12-.044-.12-.13v-1.052l-1.002-1.537c0-.01.004-.02.008-.029.005-.016.015-.031.027-.043.017-.016.037-.028.058-.036.027-.015.058-.023.089-.022.03.002.06.013.086.03.025.018.046.043.058.071l.826 1.291.82-1.284c.048-.072.099-.108.153-.108.028 0 .056.007.08.023l-.003-.001zm4.069.847c.008.121-.012.243-.059.355-.046.112-.118.211-.21.29-.232.167-.514.246-.798.225h-.558v.98c.001.033-.01.066-.03.093-.013.013-.029.023-.046.029-.018.006-.037.01-.055.008H35.2c-.017.002-.035 0-.052-.007-.016-.006-.031-.015-.044-.028-.012-.012-.021-.027-.027-.044-.006-.017-.008-.034-.007-.052v-2.53c0-.023.003-.045.012-.066.008-.02.021-.04.038-.054.015-.017.033-.03.054-.039.02-.008.043-.012.065-.01h.72c.272-.018.541.059.763.217.091.077.163.174.21.284.048.11.07.23.063.35h-.003zm-1.625-.587v1.2h.588c.195.015.39-.039.55-.152.064-.054.114-.122.146-.199.033-.076.047-.16.042-.243 0-.4-.245-.6-.733-.6l-.593-.006zm-6.93-.282c.087 0 .132.046.132.138v2.42h1.355c.092 0 .137.042.137.12v.03c0 .082-.045.12-.137.12h-1.486c-.023.003-.045-.001-.066-.01-.02-.008-.04-.021-.054-.038-.017-.015-.03-.034-.04-.054-.009-.021-.012-.044-.011-.066v-2.517c0-.092.044-.138.131-.138l.04-.005zm-1.113.87c.009.12-.011.242-.058.354-.046.112-.119.211-.21.29-.231.167-.514.246-.797.225h-.56v.98c.003.033-.007.066-.027.093-.013.013-.029.023-.046.03-.018.006-.036.008-.055.007h-.037c-.018.002-.035 0-.052-.006-.016-.006-.032-.016-.044-.028-.013-.013-.023-.028-.029-.045-.005-.016-.008-.034-.006-.052v-2.53c.002-.044.02-.086.052-.116.03-.031.073-.049.116-.05h.72c.271-.018.54.059.76.217.091.077.164.174.212.283.048.11.07.228.065.347h-.004zm-.297.015c0-.4-.244-.6-.73-.6h-.6v1.2h.587c.195.014.39-.04.55-.153.066-.053.118-.122.152-.2.034-.078.05-.162.044-.247h-.003zm16.5-.827c.016-.016.035-.028.057-.036.026-.015.057-.022.087-.022.031.002.061.012.087.03.026.018.047.043.06.071l.825 1.291.818-1.284c.014-.029.036-.054.063-.073.026-.019.057-.03.09-.035.027-.002.056.006.079.022.021.01.04.022.058.036.013.012.023.027.03.043l.006.029-1 1.537v1.051c.001.018-.001.036-.007.052-.006.017-.016.032-.028.045-.013.012-.027.022-.044.028-.017.006-.035.008-.052.006h-.043c-.082 0-.12-.044-.12-.13v-1.052l-1-1.537c.002-.028.015-.053.036-.072h-.002zm-5.455-.058c.087 0 .13.046.13.138v2.42h1.356c.091 0 .137.04.137.12v.03c0 .08-.046.12-.137.12h-1.486c-.023.003-.046-.001-.067-.01-.02-.008-.039-.021-.053-.038-.018-.015-.031-.034-.04-.054-.01-.021-.013-.044-.012-.066v-2.517c0-.092.044-.138.132-.138l.04-.005zm3.784.101l1.03 2.66c.01.015 0 .035-.043.058-.035.018-.073.029-.112.03-.039.002-.078-.006-.114-.021-.036-.029-.064-.066-.08-.11l-.303-.805h-1.212l-.305.805c-.016.044-.044.081-.08.11-.027.013-.056.02-.086.021-.042.002-.084-.009-.12-.03-.04-.023-.055-.043-.046-.057l1.031-2.66c.013-.033.036-.06.065-.08.049-.023.103-.034.158-.03.05-.005.102.006.146.03.035.017.062.044.077.08h-.006zm-.224.225l-.508 1.327h1.008l-.5-1.327zM21.93 4.76c-.12-.118-.261-.21-.417-.271-.156-.062-.322-.092-.49-.09-.17-.005-.338.024-.496.086-.158.062-.302.155-.422.275-.338.37-.565.827-.656 1.32-.184.888-.265 1.794-.24 2.7-.026.908.057 1.814.248 2.7.087.497.311.96.647 1.335.12.118.264.21.422.27.158.06.327.088.496.08.168.007.336-.021.494-.081.157-.06.3-.152.422-.269.336-.376.56-.838.647-1.334.32-1.786.32-3.614 0-5.4-.09-.493-.315-.95-.651-1.321h-.004zm1.654.927c.491 2.037.491 4.161 0 6.198-.17.659-.526 1.254-1.026 1.714-.444.335-.984.517-1.54.517s-1.096-.182-1.54-.517c-.5-.46-.858-1.055-1.027-1.714-.491-2.037-.491-4.161 0-6.198.167-.657.524-1.251 1.027-1.706.441-.342.983-.527 1.54-.527.558 0 1.1.185 1.54.527.504.456.863 1.052 1.03 1.712l-.004-.006zm-7.096 5.788c.037.357-.007.719-.128 1.057-.12.338-.316.645-.571.899-.255.253-.564.446-.903.564-.34.118-.701.16-1.058.12-.491.014-.976-.114-1.396-.369-.39-.25-.7-.607-.896-1.027-.223-.48-.338-1.004-.34-1.533h1.037c-.017.52.14 1.033.447 1.454.158.178.354.318.573.41.22.091.456.132.694.12.207.01.413-.024.606-.1.192-.075.366-.191.51-.34.294-.354.443-.806.418-1.266-.004-.437-.155-.86-.428-1.2-.3-.36-.649-.675-1.037-.937-.412-.279-.824-.575-1.236-.888-.404-.299-.753-.664-1.034-1.08-.285-.446-.435-.966-.43-1.495-.01-.324.046-.647.164-.949.119-.301.296-.576.524-.807.495-.448 1.146-.684 1.813-.656.334-.014.667.043.977.167.31.124.59.313.823.553.492.587.76 1.328.758 2.094h-1.037c-.017-.477-.165-.939-.428-1.336-.136-.178-.313-.32-.516-.413-.204-.094-.427-.137-.65-.125-.19-.006-.38.024-.557.091-.178.067-.342.168-.48.298-.127.129-.226.282-.293.45-.066.167-.098.347-.095.527.003.43.154.844.428 1.175.305.34.653.639 1.037.887.41.272.823.56 1.237.867.409.311.76.692 1.036 1.126.291.505.441 1.079.435 1.662h-.004zm7.518 6.075h.058c.027 0 .056.004.082.014.026.01.05.025.07.044.019.016.034.036.044.058.01.023.014.047.014.072v2.53c0 .087-.041.131-.12.131h-.036c-.083 0-.12-.044-.12-.13V17.89l-.733 1.61c-.024.05-.055.097-.093.137-.05.032-.108.047-.167.043-.058.004-.117-.01-.167-.043-.037-.04-.066-.086-.086-.137l-.74-1.61v2.378c0 .087-.038.131-.12.131h-.05c-.077 0-.12-.044-.12-.13v-2.531c0-.025.005-.05.015-.072.01-.022.025-.042.044-.058.021-.02.046-.035.074-.045.027-.01.055-.014.084-.013h.066c.03-.003.06.001.09.011.029.01.055.026.078.047.038.05.07.107.092.167l.74 1.639.74-1.64c.022-.06.054-.116.094-.166.022-.022.05-.038.08-.048.029-.01.06-.013.09-.01h-.003zm-5.372.022c.104.023.205.064.296.12.069.04.13.093.181.154.04.044.063.1.066.158 0 .03-.01.058-.03.08-.016.022-.036.042-.057.058l-.058.036h-.029c-.072-.12-.174-.22-.296-.29-.14-.081-.297-.123-.458-.12-.171-.01-.34.039-.48.136-.058.043-.105.099-.137.164-.031.064-.047.135-.045.207-.003.078.014.155.05.223.036.06.086.111.146.147.075.038.152.07.232.095.087.022.183.046.29.07.115.025.23.057.34.095.104.037.202.089.29.153.089.059.16.139.21.232.057.107.085.227.08.347.006.11-.015.219-.06.319-.046.1-.114.187-.2.255-.092.074-.198.128-.312.16-.132.04-.269.059-.407.057-.142.002-.283-.018-.42-.058-.115-.028-.225-.075-.326-.138-.077-.05-.145-.11-.203-.18-.046-.048-.074-.11-.079-.175-.002-.029.008-.057.027-.079.018-.021.037-.04.06-.058.015-.017.034-.03.056-.037.02-.006.031-.006.031 0 .085.133.196.246.326.334.16.095.343.143.528.138.18.01.358-.038.508-.138.06-.044.107-.103.14-.17.031-.067.045-.141.042-.215.003-.083-.02-.164-.066-.232-.04-.064-.098-.117-.166-.151-.077-.046-.16-.083-.247-.11l-.29-.073-.32-.086c-.098-.033-.19-.082-.274-.144-.082-.059-.149-.136-.196-.226-.057-.107-.085-.227-.08-.349 0-.105.026-.21.073-.303.05-.094.116-.178.195-.248.092-.07.195-.123.304-.158.12-.044.244-.066.37-.065.136 0 .27.023.398.066l-.003-.001zm1.912.12v2.58c.001.018-.001.035-.007.052-.006.016-.016.031-.028.044-.012.012-.027.022-.043.028-.017.006-.035.008-.053.007h-.042c-.083 0-.12-.045-.12-.131v-2.579c0-.092.042-.138.12-.138h.042c.088-.005.134.041.134.138l-.003-.001z" clip-rule="evenodd"/>
</svg>
