<svg xmlns="http://www.w3.org/2000/svg" width="81" height="25" fill="none" viewBox="0 0 81 25">
    <path fill="#B5B5B5" d="M5.072 6.361H2.675V17.93h2.397V6.361zM29.284 13.865L21.607 6.36h-1.841v11.534h2.431v-7.539l7.678 7.539h1.84V6.327h-2.431v7.538zM41.512 6.327h-8.268v11.568h1.598v-4.412h6.705c.73 0 1.32-.243 1.84-.764.522-.522.765-1.112.765-1.842V8.932c0-.73-.243-1.32-.764-1.841-.521-.486-1.147-.764-1.876-.764zm1.042 4.342c0 .382-.139.73-.382.973-.278.277-.59.382-1.008.382h-6.357V7.75h6.357c.417 0 .73.139 1.008.417.278.278.382.59.382 1.007v1.494zM47.07 16.088c-.278-.278-.382-.59-.382-1.007V6.327H45.09v8.962c0 .73.243 1.32.764 1.841.521.521 1.112.765 1.841.765h8.442V16.47h-8.06c-.416 0-.73-.139-1.007-.382zM75.521 6.327l-4.168 5.106-4.169-5.106H65.03l5.524 6.6v4.968h1.598v-4.968l5.523-6.6h-2.154zM66.802 11.329l-.66-.382-6.948-4.03-.869-.486c-.277-.174-.625-.174-.903 0-.278.173-.451.451-.451.799v9.796c0 .486.417.903.903.903.174 0 .347-.07.521-.139l.521-.312 6.982-4.03.904-.521c.278-.174.451-.452.451-.8 0-.312-.173-.624-.451-.798zm-1.737.903l-6.635 3.821V8.168l.173.104 6.635 3.821-.173.14zM15.667 6.361H6.01v2.293h.59v9.275h9.032c.8 0 1.46-.278 2.05-.833.556-.556.834-1.251.834-2.015V9.21c0-.8-.278-1.46-.834-2.015-.556-.556-1.25-.834-2.015-.834zm.452 8.476c0 .244-.07.417-.209.556-.139.14-.347.209-.59.209H9.032V8.619h6.288c.243 0 .416.07.59.209.14.139.209.347.209.59v5.42z"/>
</svg>
