<svg xmlns="http://www.w3.org/2000/svg" width="73" height="25" fill="none" viewBox="0 0 73 25">
    <path fill="#B5B5B5" d="M25.427 6.603h-2.664c-.063 0-.127.006-.206.01 0 .073-.016.135-.016.199V11.928c.009.73.073.796.8.802h.701c.345.008.443.11.448.461 0 .234-.016.468 0 .699.012.053.01.108-.002.16-.013.054-.038.103-.072.145-.035.041-.079.075-.128.098-.05.022-.103.033-.158.032-.621.04-1.244.068-1.867.081-.196-.004-.391-.032-.58-.082-.407-.075-.771-.295-1.026-.62-.255-.323-.383-.729-.36-1.14-.047-.819-.045-1.64-.05-2.46-.007-1.156 0-2.312 0-3.508h-.534c-.462 0-.545-.081-.545-.53v-.728c0-.273.12-.393.389-.405.214-.009.429 0 .69 0v-.276-1.595c-.008-.053-.005-.107.01-.159.014-.051.039-.1.072-.141.034-.042.076-.076.123-.101.048-.025.1-.04.154-.044.516-.085 1.028-.181 1.546-.26.272-.041.379.06.379.339v2.221h2.887V3.153c0-.408.064-.49.46-.56.469-.084.938-.16 1.408-.233.306-.048.41.043.41.36v2.215h1.08c.36 0 .437.103.44.43v.867c.006.049 0 .098-.017.145-.017.046-.044.088-.08.122-.035.035-.077.061-.124.077-.046.016-.096.021-.145.015h-1.146v5.139c0 .968.026.992.979.995h.588c.052-.006.104 0 .153.017s.093.045.13.082c.036.036.064.08.081.13.017.049.023.1.017.152v.868c.004.037.002.075-.008.11-.01.037-.027.07-.05.1-.024.03-.052.054-.085.072-.033.019-.069.03-.106.034-.956.236-1.96.206-2.9-.086-.242-.08-.457-.227-.62-.422-.165-.195-.272-.431-.31-.683-.092-.466-.14-.94-.144-1.414-.018-1.613-.009-3.227-.01-4.84l.008-.242zM66.474 4.943V2.588v-.36c-.006-.051 0-.103.017-.152.018-.05.046-.093.084-.13.037-.035.082-.063.131-.079.05-.015.102-.02.154-.012h1.484c.054-.007.108 0 .159.018.05.018.097.048.134.087.037.039.065.086.081.137.017.051.021.106.013.16v11.187c.004.054-.002.108-.019.16-.017.05-.044.098-.08.139-.034.04-.077.074-.126.097-.048.024-.1.038-.154.042-.72.135-1.426.292-2.146.376-.823.122-1.66.114-2.482-.022-.77-.093-1.483-.45-2.019-1.01-.535-.56-.86-1.288-.918-2.06-.162-1.109-.15-2.236.036-3.342.108-.81.505-1.553 1.12-2.093.613-.54 1.402-.841 2.22-.846.64-.036 1.284.02 1.928.036.117.002.228.012.383.022zm0 1.747c-.66-.024-1.285-.084-1.905-.061-.347-.01-.685.106-.952.328-.266.222-.442.533-.495.876-.216 1.071-.236 2.173-.057 3.25.006.213.056.422.147.614.092.192.222.362.384.5.161.139.35.242.554.303.204.06.418.079.63.052.455 0 .912-.048 1.368-.054.249 0 .334-.083.332-.345-.014-1.39 0-2.778 0-4.168l-.006-1.295zM20.702 22.348c-3.407.05-6.779-.694-9.847-2.174-1.456-.69-2.763-1.656-3.848-2.845-.137-.152-.24-.329-.308-.521-.1-.306.12-.521.433-.44.135.037.263.097.376.179 2.298 1.584 4.944 2.594 7.715 2.945 3.061.441 6.166.492 9.24.151 2.377-.198 4.695-.842 6.832-1.898.677-.35 1.313-.781 1.97-1.172.13-.09.272-.159.422-.207.316-.077.528.148.422.45-.07.193-.174.37-.31.523-1.109 1.204-2.442 2.18-3.925 2.876-2.318 1.136-4.831 1.822-7.406 2.022-.681.06-1.372.087-1.766.11zM53.968 5.576c.323-.154.614-.315.922-.437.935-.371 1.965-.438 2.941-.192.492.116.933.385 1.26.77.327.384.522.863.556 1.366.077.468.117.942.12 1.417.013 1.744 0 3.489 0 5.232 0 .45-.095.545-.533.546h-1.261c-.383 0-.5-.12-.5-.5V8.184c-.003-.233-.024-.465-.062-.695-.02-.183-.097-.355-.222-.49s-.29-.226-.472-.26c-.892-.152-1.809.024-2.58.498-.063.031-.084.19-.085.291v6.128c0 .553-.073.623-.628.623h-1.121c-.448 0-.545-.094-.545-.534v-6.35-1.988c0-.36.11-.47.464-.47h1.233c.41 0 .48.087.501.487-.008.04-.001.084.012.153zM48.141 13.607c-.394.16-.764.333-1.148.464-.766.26-1.592.286-2.373.075-.527-.111-.998-.404-1.332-.826-.334-.422-.51-.948-.497-1.486-.02-.361.004-.723.07-1.079.1-.463.335-.886.677-1.215.342-.329.775-.549 1.242-.631.948-.214 1.92-.297 2.89-.248.36 0 .361 0 .361-.367 0-.26-.014-.52-.044-.78-.013-.198-.093-.385-.227-.532-.133-.146-.313-.243-.509-.274-.254-.056-.514-.084-.775-.083-.887.025-1.773.07-2.658.114-.417.021-.48-.027-.48-.434v-.811c-.007-.047-.004-.094.008-.14.012-.045.033-.088.062-.125.028-.038.064-.069.105-.092.041-.023.087-.038.134-.043 1.495-.35 3.049-.366 4.551-.05.598.127 1.132.458 1.51.936.38.478.58 1.074.565 1.684.034 2.037.013 4.066.016 6.1.007.05.001.103-.015.153-.017.049-.044.094-.08.131-.036.038-.08.067-.13.085-.048.018-.1.025-.153.02-.457.013-.915.008-1.372 0-.358-.005-.396-.268-.398-.546zm-.105-2.503c0-.27-.007-.54 0-.809 0-.16-.055-.213-.212-.207-.521.02-1.043.013-1.56.052-.168-.01-.335.016-.49.078-.156.062-.295.157-.41.279-.114.121-.201.267-.253.426-.052.159-.068.327-.048.493v.223c-.013.117 0 .235.036.347.037.111.098.214.179.3.08.085.178.153.288.197.109.044.226.064.343.059.605.049 1.214-.044 1.776-.27.061-.013.119-.036.17-.07.051-.035.095-.08.128-.131.034-.052.057-.11.068-.17.01-.061.008-.123-.006-.183-.015-.204-.018-.41-.01-.614zM38.213 9.757c-.025.563-.087 1.124-.188 1.678-.162.8-.598 1.519-1.233 2.032-.635.514-1.43.79-2.247.783-.596.027-1.192-.035-1.769-.184-.627-.156-1.195-.491-1.633-.965-.439-.474-.73-1.066-.836-1.702-.244-1.163-.254-2.363-.03-3.53.12-.841.54-1.61 1.18-2.17.642-.558 1.462-.868 2.313-.873.868-.085 1.743.081 2.52.48.51.28.943.681 1.26 1.168.318.487.511 1.045.563 1.624.07.481.063.97.1 1.66zm-2.211-.212h-.062c0-.36.02-.727 0-1.089.004-.371-.11-.735-.326-1.037-.215-.303-.521-.53-.874-.65-.233-.089-.483-.125-.731-.105-.25.02-.49.095-.706.22-.217.124-.403.295-.544.5-.142.205-.236.439-.276.685-.19.982-.19 1.992 0 2.974.037.286.152.556.335.779.182.223.424.39.697.483.242.104.505.152.768.137.264-.014.52-.089.75-.218.23-.13.425-.312.572-.53.148-.218.242-.468.277-.729.064-.47.104-.944.12-1.419zM10.687 9.53c-.05-.858.081-1.718.382-2.524.24-.576.63-1.078 1.13-1.452.5-.373 1.092-.606 1.713-.673.86-.155 1.748-.066 2.56.256.592.23 1.108.62 1.492 1.127.384.506.62 1.108.681 1.74.171 1.1.158 2.219-.04 3.313-.135.77-.52 1.474-1.099 2.001-.577.527-1.314.848-2.094.912-.808.12-1.634.034-2.4-.25-.619-.237-1.158-.644-1.555-1.174-.397-.53-.637-1.162-.69-1.822-.065-.479-.054-.97-.08-1.453zm5.862.025h-.034c0-.187.012-.374 0-.56-.011-.316-.046-.63-.103-.942-.065-.396-.273-.755-.585-1.008-.313-.254-.708-.383-1.11-.365-.402-.022-.798.108-1.11.363-.313.255-.519.617-.578 1.015-.193.991-.193 2.01 0 3.002.065.397.274.757.59 1.009.314.252.712.378 1.114.353.406.013.803-.125 1.114-.388.31-.262.511-.63.566-1.032.093-.477.096-.966.136-1.447zM3.702 6.927V2.339c0-.403.088-.488.492-.488h1.29c.439 0 .513.074.513.524v8.868c-.016.155.002.311.055.458.053.147.139.28.25.388.112.11.247.191.395.24.148.05.306.065.46.045.86.012 1.719 0 2.578.008.36 0 .461.102.462.466v1.007c0 .193-.075.308-.269.319-.948.056-1.896.12-2.845.15-.42.006-.84-.025-1.254-.093-.28-.005-.558-.066-.814-.18-.257-.112-.489-.276-.681-.48-.193-.203-.343-.444-.441-.706-.099-.262-.144-.542-.133-.822-.066-.839-.056-1.677-.066-2.516-.006-.867.008-1.733.008-2.6zM41.711 8.108v5.738c0 .382-.097.486-.47.487H39.7c-.349 0-.456-.108-.456-.448V2.328c0-.375.103-.48.48-.48h1.514c.36 0 .466.107.468.464l.004 5.796z"/>
</svg>
