<svg xmlns="http://www.w3.org/2000/svg" width="67" height="25" fill="none" viewBox="0 0 67 25">
    <path fill="#B5B5B5" d="M12.26 13.738h3.855l-1.332-3.376-2.523 3.376z"/>
    <path fill="#B5B5B5" d="M7.194 4.893l-3.02 17.119h17.12l-.164-11.103 2.699-3.24.48-2.78-17.115.004zm11.273 14.81l-1.578-3.999h-6.096l-2.99 4H5.539l9.925-13.23 5.258 13.23h-2.255z"/>
    <path fill="#B5B5B5" d="M18.467 19.704l2.826 2.309.406-2.31h-3.232z"/>
    <path fill="#B5B5B5" d="M21.486 2.585l-3.02 17.119h17.12l3.018-17.12H21.486zm6.34 12.983c.797-.023 1.579-.225 2.287-.59.71-.367 1.326-.888 1.806-1.525h-3.6l.346-1.962h5.76l-.347 1.962c-.651 1.194-1.603 2.197-2.76 2.91-1.158.713-2.481 1.111-3.84 1.156-.787.027-1.569-.126-2.286-.45-.718-.323-1.352-.807-1.852-1.414-.5-.608-.854-1.322-1.034-2.088-.18-.767-.18-1.564-.003-2.33.345-1.727 1.262-3.286 2.603-4.426 1.341-1.14 3.028-1.795 4.787-1.857 1.206-.05 2.391.334 3.339 1.083.948.748 1.596 1.811 1.828 2.996H32.7c-.278-.653-.747-1.206-1.346-1.587-.598-.38-1.299-.57-2.008-.544-1.213.043-2.376.495-3.3 1.28-.925.787-1.559 1.862-1.797 3.052-.123.53-.122 1.08.003 1.61.124.529.369 1.022.715 1.44.346.42.783.754 1.28.976.495.223 1.035.328 1.578.308zM42.163 12.58h-2.02l-.72 1.063h-1.08l3.372-4.81h1.165l.34 4.81h-.996l-.06-1.063zm-.048-.8l-.098-1.936-1.428 1.935h1.526zM43.82 12.668l.98-.144c.046.163.144.307.28.408.154.09.33.131.508.12.197.008.392-.042.56-.144.045-.024.084-.058.113-.1.03-.041.048-.09.056-.14.003-.03 0-.061-.01-.09-.01-.03-.026-.057-.047-.08-.12-.083-.254-.143-.396-.176-.379-.098-.742-.248-1.08-.447-.1-.078-.177-.181-.224-.299-.047-.117-.063-.245-.045-.37.016-.14.06-.274.128-.397.068-.122.16-.23.27-.315.402-.3.896-.447 1.395-.416.368-.028.736.058 1.054.246.11.076.201.175.27.29.068.115.11.243.125.376l-.938.15c-.03-.119-.104-.221-.207-.286-.16-.09-.34-.134-.522-.127-.16-.012-.32.022-.46.098-.043.023-.08.056-.107.095-.027.04-.046.085-.054.132-.004.044.006.088.027.126.022.039.054.07.093.09.175.077.356.139.542.184.334.071.652.205.937.393.1.076.177.176.227.291.049.116.067.241.053.366-.021.172-.08.338-.17.486-.092.148-.213.275-.357.373-.376.258-.827.384-1.282.36-.421.027-.841-.07-1.208-.279-.132-.089-.245-.203-.333-.336-.088-.133-.149-.281-.179-.438zM48.938 10.16h1.001l-1.124 3.48h-.999l1.122-3.48zm.426-1.32h.999l-.275.853h-.997l.273-.854zM51.453 11.147l-.96-.08c.137-.304.366-.559.655-.728.345-.186.735-.277 1.127-.261.363-.033.726.063 1.025.27.099.077.176.179.224.294.048.116.066.242.051.367-.012.113-.033.225-.063.335-.032.117-.133.428-.301.93-.108.283-.188.576-.24.873-.014.166-.002.333.033.496h-.97c-.027-.13-.038-.262-.033-.394-.157.15-.34.27-.54.353-.185.078-.385.119-.586.12-.135.007-.27-.015-.395-.064-.125-.05-.24-.124-.334-.22-.09-.097-.157-.213-.196-.34-.039-.126-.049-.26-.029-.39.01-.153.053-.303.123-.44.07-.138.167-.26.286-.358.359-.237.78-.363 1.21-.36.326-.014.65-.06.966-.136.047-.1.079-.205.095-.314.005-.047 0-.096-.018-.14-.018-.044-.048-.083-.085-.113-.109-.076-.24-.112-.372-.1-.152-.008-.301.028-.433.102-.11.07-.195.175-.24.298zm.86.872c-.08.02-.16.034-.24.043-.349.014-.69.099-1.006.249-.055.034-.101.08-.135.136-.034.055-.055.117-.06.182-.007.05-.001.102.016.15.016.048.044.091.08.127.042.04.092.072.147.093.055.02.113.03.172.027.152 0 .3-.035.437-.103.129-.06.24-.152.326-.267.1-.157.176-.327.227-.506l.036-.13zM40.23 17.064h2.28l-.669 2.064c-.325.18-.672.32-1.032.416-.393.113-.801.17-1.21.17-.504.04-1.004-.103-1.41-.402-.215-.201-.376-.453-.468-.732-.091-.28-.111-.578-.058-.867.05-.473.196-.93.432-1.344.265-.491.654-.905 1.129-1.2.476-.287 1.024-.435 1.58-.426.49-.03.975.107 1.378.387.17.138.31.31.411.503.102.194.163.407.182.625l-.988.106c-.039-.24-.164-.459-.352-.614-.204-.146-.451-.219-.701-.206-.35-.003-.694.09-.993.27-.3.18-.544.44-.706.75-.198.35-.321.737-.36 1.137-.032.156-.03.316.004.47.035.155.102.3.197.428.109.104.239.184.381.235.143.05.295.069.445.055.236-.001.472-.031.7-.09.218-.052.43-.123.634-.215l.23-.72h-1.301l.265-.8zM44.325 17.136l-.96-.078c.138-.305.368-.56.657-.728.345-.188.734-.279 1.127-.263.363-.033.726.063 1.026.27.098.078.175.18.223.296.048.115.066.242.051.366-.012.113-.034.225-.064.334-.031.12-.132.428-.301.932-.107.283-.188.575-.24.873-.015.165-.003.333.034.495h-.971c-.027-.13-.038-.261-.034-.393-.156.15-.339.269-.539.351-.185.079-.385.12-.587.12-.135.007-.27-.015-.395-.064-.125-.048-.24-.123-.334-.219-.09-.097-.157-.213-.196-.34-.039-.126-.049-.26-.029-.39.011-.154.054-.304.124-.44.07-.138.168-.26.286-.358.358-.238.78-.363 1.21-.36.326-.013.65-.058.967-.134.046-.1.077-.206.093-.314.006-.048 0-.096-.018-.14-.018-.045-.047-.084-.084-.114-.109-.076-.24-.111-.372-.1-.151-.008-.301.028-.433.102-.11.07-.196.173-.24.296zm.861.874c-.062.014-.144.028-.24.042-.349.014-.69.099-1.005.25-.055.034-.101.08-.135.135-.034.056-.055.118-.061.182-.007.05-.001.102.016.15s.044.092.081.127c.043.04.093.07.148.09.055.019.113.027.171.023.152 0 .301-.035.437-.103.129-.06.24-.15.325-.265.1-.158.176-.329.227-.508l.036-.123zM47.718 16.15h.938l-.137.422c.328-.306.753-.485 1.2-.505.222-.016.442.042.627.164.069.055.126.124.167.201.042.078.066.164.073.252.165-.19.37-.339.6-.44.237-.115.498-.176.762-.177.12-.009.241.006.355.045.115.038.22.099.31.178.076.077.132.17.164.273.033.103.04.211.024.318-.035.212-.089.42-.16.622l-.69 2.13h-.996l.687-2.13c.085-.266.13-.416.133-.452.007-.04.004-.082-.008-.122-.012-.04-.032-.076-.06-.106-.075-.062-.172-.091-.27-.083-.136.007-.27.044-.39.108-.121.064-.227.154-.31.263-.212.28-.367.6-.457.94l-.511 1.582h-.999l.68-2.106c.054-.154.097-.312.128-.472.005-.042.001-.084-.012-.123-.014-.04-.036-.075-.065-.104-.036-.032-.078-.055-.123-.07-.046-.016-.093-.021-.14-.018-.122.004-.24.035-.347.091-.125.064-.237.15-.33.254-.109.123-.198.262-.266.412-.036.08-.1.257-.19.534l-.517 1.602h-.998l1.128-3.483zM54.08 16.15h.999l-1.126 3.48h-.997l1.124-3.48zm.428-1.32h.997l-.274.853h-.998l.275-.853zM56.073 16.15h.946l-.145.452c.215-.169.453-.308.705-.413.212-.08.435-.12.661-.12.127-.009.253.009.372.051.12.043.229.11.32.196.081.087.14.19.174.303.034.113.042.232.024.349-.042.237-.105.47-.187.696l-.633 1.971h-.998l.638-1.978c.061-.173.111-.35.15-.528.01-.051.007-.103-.008-.152-.015-.05-.04-.095-.075-.133-.041-.036-.09-.064-.142-.082-.052-.017-.108-.024-.163-.02-.18.011-.355.072-.504.174-.189.115-.35.273-.468.46-.141.263-.253.541-.333.83l-.462 1.43h-.998l1.126-3.487zM59.212 19.817l1.04.144c-.015.077-.005.157.029.228.037.058.09.104.154.132.1.04.206.058.313.054.18.007.36-.035.519-.12.112-.073.204-.175.264-.295.08-.181.147-.368.2-.558l.05-.164c-.317.252-.707.394-1.112.407-.16.008-.32-.02-.468-.082-.147-.063-.28-.157-.385-.278-.11-.15-.189-.322-.23-.503-.041-.182-.045-.37-.01-.554.038-.395.157-.778.35-1.124.173-.321.43-.589.743-.774.27-.166.581-.257.899-.263.232-.004.46.06.656.183.192.124.34.304.424.516l.201-.616h.937l-.936 2.902c-.103.339-.223.672-.36.998-.074.173-.174.335-.295.48-.108.121-.237.222-.381.296-.163.085-.338.143-.519.173-.208.036-.418.054-.63.053-.401.029-.803-.06-1.156-.254-.128-.094-.226-.224-.282-.373-.056-.15-.067-.311-.033-.467.002-.047.009-.095.018-.141zm1.346-1.68c-.04.21.007.429.128.606.054.068.123.122.202.158.079.036.165.053.252.05.19-.006.373-.07.524-.187.186-.137.334-.32.43-.532.104-.209.17-.434.197-.665.018-.105.014-.213-.012-.316-.026-.103-.074-.2-.139-.284-.055-.071-.126-.129-.207-.168-.081-.039-.17-.059-.26-.058-.19.004-.37.074-.512.2-.19.17-.337.38-.433.616-.086.182-.144.377-.17.576v.004z"/>
</svg>
