<svg xmlns="http://www.w3.org/2000/svg" width="100" height="25" fill="none" viewBox="0 0 100 25">
    <path fill="#B5B5B5" d="M90.503 10.005H90v-1.44h-.48v-.433h1.483v.433h-.507l.007 1.44zM93.61 10.005h-.494l.038-1.44h-.015l-.467 1.44h-.432l-.48-1.44h-.017l.044 1.44h-.496V8.131h.793l.36 1.177h.02L92.8 8.13h.812l-.002 1.874zM31.932 15.966h-2.139v-3.131h-2.772v3.13h-2.14v-7.97h2.14v3.01h2.772v-3.01h2.139v7.97zM35.339 14.591l-.383 1.375h-2.223l2.39-7.97h3.24l2.425 7.97h-2.175l-.419-1.374H35.34zm1.433-5.007l-.98 3.466h1.984l-1.004-3.466zM41.588 7.995h4.337c.604-.023 1.203.12 1.733.412.24.193.424.444.538.73.113.286.15.597.107.902.009.407-.054.813-.185 1.2-.12.34-.48.555-1.058.651v.06c.21-.002.416.044.605.133.19.088.357.219.49.38.207.372.304.795.28 1.22.04.322.012.649-.08.96-.091.312-.245.601-.452.85-.574.377-1.26.543-1.942.472h-4.373v-7.97zm3.5 3.19c.032.008.064.012.096.013h.084c.22-.003.44-.037.65-.102.18-.06.27-.253.27-.58.022-.209-.031-.418-.15-.591-.164-.129-.372-.187-.579-.161h-1.732v1.422h1.361zm.06 3.024c.28.014.56-.016.83-.09.22-.068.33-.297.33-.687 0-.374-.086-.595-.257-.663-.245-.078-.502-.112-.759-.101h-1.56v1.54h1.416zM51.28 14.591l-.383 1.375h-2.222l2.389-7.97h3.24l2.426 7.97h-2.175l-.418-1.374H51.28zm1.434-5.007l-.98 3.466h1.983l-1.003-3.466zM65.248 15.966h-3.62l-2.247-6.13h-.096l.096 6.13h-2.092v-7.97h3.6l2.246 6.058h.084l-.084-6.059h2.116l-.003 7.97zM68.438 11.186h3.395v1.478h-3.395v1.541h3.705v1.757H66.3v-7.97h5.771v1.756h-3.633v1.438zM73.147 7.995h4.015c.765-.06 1.53.122 2.186.52.258.281.451.616.565.98.114.365.145.75.093 1.13.015.49-.052.981-.197 1.451-.132.37-.568.634-1.309.794v.073c.203-.003.404.036.592.113.188.077.358.19.501.334.253.32.379.722.353 1.13v1.445H77.77v-1.063c.014-.266-.05-.53-.186-.76-.084-.102-.195-.182-.319-.231-.124-.05-.258-.066-.39-.05h-1.59v2.104h-2.14v-7.97zm3.84 4.039c.39.009.626-.079.71-.263.094-.252.135-.52.12-.788.017-.293-.028-.587-.132-.862-.087-.182-.36-.275-.813-.275l-1.59-.01v2.198h1.705zM80.843 11.561c0-.163 0-.324.012-.48.012-.156.019-.32.036-.48.017-.16.036-.325.06-.48.027-.372.154-.73.368-1.036.215-.305.508-.546.85-.698.682-.267 1.407-.408 2.14-.417h.24c1.014-.098 2.033.148 2.891.7.328.394.57.852.712 1.344.142.493.18 1.01.113 1.517.053 1.14-.11 2.28-.48 3.36-.32.765-1.378 1.148-3.173 1.148-.128 0-.26 0-.395-.006s-.27-.01-.405-.018c-.587-.02-1.166-.146-1.709-.371-.273-.122-.514-.307-.704-.54-.189-.232-.32-.505-.385-.798-.078-.269-.126-.545-.142-.825-.017-.28-.025-.558-.025-.84v-1.069l-.004-.01zm2.186.437v.48c-.02.438.042.876.18 1.291.12.294.51.441 1.172.442.732 0 1.195-.117 1.391-.352.24-.414.343-.893.293-1.369v-.287c0-.094 0-.194.013-.298v-.574c.027-.404-.052-.807-.229-1.171-.151-.247-.513-.37-1.087-.37-.828 0-1.32.111-1.476.334-.218.587-.305 1.216-.257 1.84v.037-.003z"/>
    <path fill="#B5B5B5" fill-rule="evenodd" d="M12.992 3.693c.106 0 .207-.043.282-.118.075-.074.117-.176.117-.282V2.141c0-.105-.042-.207-.117-.281-.075-.075-.176-.117-.282-.117-.106 0-.207.042-.282.117-.074.074-.116.176-.116.281v1.152c0 .106.042.208.116.282.075.075.176.118.282.118zM11.399 4.744c.106 0 .207-.042.282-.117.074-.074.116-.176.116-.281V3.194c0-.053-.01-.104-.03-.153-.02-.048-.05-.092-.086-.129-.037-.037-.08-.066-.13-.086-.048-.02-.1-.03-.152-.03-.052 0-.104.01-.152.03-.049.02-.092.05-.13.086-.036.037-.066.081-.086.13-.02.048-.03.1-.03.152v1.152c0 .105.042.207.117.281.074.075.175.117.28.117zM11.399 2.086c.106 0 .207-.042.282-.116.074-.075.116-.177.116-.282v.008c0-.052-.01-.104-.03-.152-.02-.049-.05-.092-.086-.13-.037-.036-.08-.066-.13-.086-.048-.02-.1-.03-.152-.03-.052 0-.104.01-.152.03-.049.02-.092.05-.13.087-.036.037-.066.08-.086.129-.02.048-.03.1-.03.152v-.008c0 .105.042.207.117.282.074.074.175.116.28.116zM14.586 5.055c.106 0 .207-.042.282-.117.075-.074.116-.176.116-.281v.01c0-.106-.041-.208-.116-.282-.075-.075-.176-.117-.282-.117-.106 0-.207.042-.282.117-.075.074-.117.176-.117.281v-.01c0 .053.01.105.03.153.02.049.05.093.087.13.037.037.08.066.129.086.048.02.1.03.153.03z" clip-rule="evenodd"/>
    <path fill="#B5B5B5" fill-rule="evenodd" d="M17.773 8.01c-.106 0-.206.041-.281.116-.075.075-.117.176-.117.282v.201c-.008.103-.055.198-.132.266-.076.069-.176.105-.278.102-.103-.004-.2-.046-.272-.12-.072-.073-.112-.171-.114-.274v-.995c0-.106-.041-.207-.116-.282-.075-.074-.176-.116-.282-.116-.106 0-.207.042-.282.116-.074.075-.116.176-.116.282v.023c0 .106-.042.207-.117.282-.075.074-.176.116-.282.116-.106 0-.207-.042-.282-.116-.074-.075-.116-.176-.116-.282V5.944c.003-.054-.006-.108-.024-.159-.019-.05-.047-.097-.085-.137-.037-.039-.082-.07-.132-.092-.05-.021-.103-.032-.157-.032-.054 0-.108.01-.158.032s-.094.053-.132.092c-.037.04-.065.086-.084.137-.019.05-.027.105-.024.16v.635c-.003.105-.046.205-.12.279-.074.074-.175.117-.28.12-.105 0-.207-.042-.281-.117-.075-.075-.117-.176-.117-.282V4.787c0-.105-.042-.207-.117-.281-.074-.075-.176-.117-.281-.117-.106 0-.208.042-.282.117-.075.074-.117.176-.117.281v1.56c0 .053-.01.104-.03.153-.02.048-.05.092-.086.129-.037.037-.081.066-.13.086-.048.02-.1.03-.152.03-.053 0-.104-.01-.153-.03-.048-.02-.092-.049-.129-.086-.037-.037-.066-.08-.086-.13-.02-.048-.03-.1-.03-.152v-.559c0-.106-.043-.207-.117-.282-.075-.074-.176-.116-.282-.116-.105 0-.207.042-.281.116-.075.075-.117.176-.117.282v1.2c0 .052-.01.104-.03.153-.02.048-.05.092-.087.129-.037.037-.08.066-.13.086-.048.02-.1.03-.152.03-.052 0-.104-.01-.152-.03-.049-.02-.092-.05-.13-.086-.036-.037-.066-.081-.086-.13-.02-.048-.03-.1-.03-.152V5.322c0-.105-.042-.207-.117-.281-.074-.075-.176-.117-.281-.117-.106 0-.207.042-.282.117-.075.074-.117.176-.117.281v2.542c0 .106-.042.207-.116.282-.075.075-.177.116-.282.116-.106 0-.207-.041-.282-.116-.075-.075-.117-.176-.117-.282v-.673c0-.106-.042-.207-.116-.282-.075-.075-.176-.116-.282-.116-.106 0-.207.041-.282.116-.075.075-.117.176-.117.282v1.876c0 .105-.041.207-.116.281-.075.075-.176.117-.282.117-.106 0-.207-.042-.282-.117-.075-.075-.116-.176-.116-.281V8.45c0-.106-.042-.207-.117-.282-.075-.075-.176-.117-.282-.117-.106 0-.206.042-.281.117-.075.075-.117.176-.117.282v7.518l5.977 3.451 5.979-3.451V8.404c0-.052-.012-.104-.032-.152-.021-.049-.05-.092-.088-.129-.038-.037-.082-.066-.13-.085-.05-.02-.101-.03-.154-.029zm-2.76 6.77h-1.878v-1.43H11.26v1.43H9.38v-4.476h1.878v1.505h1.876v-1.505h1.878v4.476z" clip-rule="evenodd"/>
</svg>
