<svg xmlns="http://www.w3.org/2000/svg" width="89" height="25" fill="none" viewBox="0 0 89 25">
    <path fill="#B5B5B5" d="M13.49 7.998c4.242-1.257 7.53 1.88 7.793 6.688.329-1.641.24-3.338-.257-4.937-.497-1.598-1.388-3.046-2.59-4.21-.884-.083-1.948-.12-2.846-.208-.48.566-1.616 2.114-2.1 2.667z"/>
    <path fill="#B5B5B5" d="M20.8 9.144c-1.935-3.854-5.473-2.113-7.282-.925-3.924 2.57-5.97-3.081-1.34-4.545 2.76-.872 7.627 1.574 8.621 5.47zM15.26 14.616c-.94 4.27-5.321 5.596-9.701 3.48 3.496 2.612 7.17 2.847 9.48 1.976.51-.72 1.05-1.63 1.56-2.349-.262-.691-1.08-2.418-1.34-3.109"/>
    <path fill="#B5B5B5" d="M10.7 20.392c4.352.193 4.517-3.703 4.352-5.83-.388-4.644 5.623-3.662 4.67 1.05-.553 2.777-5.086 5.802-9.023 4.78zM8.433 12.945c-3.178-3.054-1.99-7.42 2.16-9.977-4.104 1.534-6.24 4.505-6.72 6.895.344.815.84 1.741 1.188 2.556.72.138 2.64.373 3.37.526"/>
    <path fill="#B5B5B5" d="M5.89 6.077c-2.473 3.538.788 5.748 2.71 6.73 4.185 2.14.165 6.646-3.387 3.36-2.1-1.949-2.294-7.338.678-10.087M49.82 15.611h2.266c.033.003.066-.001.096-.013h.18c.54 0 .872.096 1.01.304.143.281.21.596.193.912 0 .538-.138.87-.429.994-.453.132-.924.188-1.395.166h-1.92v-2.363h-.001zm0 5.182V18.54h2.445c.296-.002.592-.024.885-.068.287-.04.559-.155.788-.332.136-.107.245-.245.318-.401.067-.15.113-.308.138-.47 0-.07.013-.152.013-.22v-.569c-.022-.218-.073-.431-.15-.636-.09-.217-.246-.4-.444-.526-.138-.096-.292-.166-.456-.206-.172-.038-.348-.06-.524-.07-.083 0-.152-.013-.24-.013h-3.565v5.76l.792.004zm-2.266-1.727c0 .524-.12.857-.373.995-.426.169-.884.24-1.34.207h-.788c-.424.037-.85-.046-1.23-.24-.128-.123-.225-.275-.282-.443-.058-.168-.075-.348-.05-.524v-4.034h-.815v4.034c0 .83.25 1.34.76 1.506.68.188 1.383.271 2.087.249h.4c.139 0 .263-.014.401-.014.579.047 1.155-.11 1.63-.442.155-.178.272-.384.346-.607.073-.223.102-.458.083-.692v-4.034h-.814l-.015 4.034v.005zm-10.308-2.142c.015-.622.138-1.022.36-1.175.395-.192.834-.275 1.271-.24h.262c.55-.03 1.1.03 1.63.179.319.12.47.539.47 1.244v.953c0 .166 0 .318-.014.48-.014.162-.013.318-.013.47-.014.705-.193 1.119-.539 1.257-.56.169-1.144.24-1.727.208-.483.053-.97-.044-1.396-.276-.253-.316-.372-.718-.331-1.12l-.014-.925.041-1.055zm-.83 1.658c0 .194 0 .374.015.567.056.732.29 1.2.705 1.395.587.236 1.22.34 1.851.304h.152c.056-.002.112.003.166.014h.331c.65.063 1.304-.082 1.867-.415.192-.192.34-.424.435-.68.096-.254.136-.527.116-.798.015-.346.015-.677.015-1.023v-1.022c0-.898-.248-1.45-.746-1.644-.71-.224-1.454-.323-2.198-.29h-.36c-1.175 0-1.851.248-2.04.76-.21.622-.31 1.277-.29 1.934v.898h-.018zm-5.346-2.984h2.626c.6 0 .952.11 1.08.317.144.29.211.615.193.94.024.165.002.334-.064.488-.066.153-.173.286-.31.383-.373.163-.78.235-1.188.207H31.06v-2.335h.011zm0 5.195v-2.321h2.445c.36-.029.72.048 1.037.22.12.091.213.212.27.35.059.138.08.29.061.438v1.327h.83v-1.465c.01-.284-.089-.56-.277-.774-.247-.22-.568-.337-.898-.331.621-.097.995-.276 1.105-.54.12-.312.177-.646.167-.98.026-.241-.005-.484-.092-.71-.086-.226-.226-.428-.406-.589-.487-.289-1.052-.42-1.616-.373h-3.413v5.76h.787v-.012zM26.537 18.5h2.295v.51c0 .54-.11.885-.319 1.036-.423.193-.89.27-1.353.222h-.706c-.096.003-.193-.002-.289-.014-.097.002-.194-.002-.29-.013-.097-.003-.195-.012-.29-.029-.526-.068-.83-.248-.927-.539-.097-.313-.143-.64-.138-.967l-.013-.815.013-.746c-.041-.455.066-.91.305-1.299.193-.193.662-.276 1.44-.276h.746c.249 0 .497.014.733.028.48.013.786.12.898.317.123.254.18.534.166.816h.787v-.221c.024-.399-.11-.791-.373-1.092-.373-.292-.841-.435-1.313-.4h-.857c-.138 0-.289-.015-.428-.015h-.427c-.693-.076-1.39.1-1.964.498-.197.217-.346.473-.44.751-.092.279-.126.573-.098.865v.789c0 .138-.014.261-.014.4v.4c-.047.32-.014.647.097.951.111.305.297.576.54.79.737.344 1.552.487 2.362.415.248 0 .497 0 .745-.014.245 0 .49-.014.733-.04.677-.056 1.091-.264 1.257-.624.16-.38.242-.788.24-1.2v-.72c-.002-.101-.011-.203-.028-.303h-3.081v.539h-.009zM78.391 4.336h3.51c.554-.015 1.106.07 1.63.25.23.1.429.263.57.471.142.208.222.451.232.702.052.311.085.625.096.94.014.318.015.636.015.954v.774c0 .12-.015.248-.015.372-.028.27-.078.539-.151.802-.073.25-.206.477-.388.663-.172.173-.386.297-.621.36-.258.067-.522.107-.788.12-.137.017-.276.026-.415.028H78.39V4.336zm3.814 7.213c1.575 0 2.529-.387 2.88-1.16.356-.839.53-1.743.512-2.653v-.774c.063-.908-.187-1.81-.706-2.556-.404-.346-.876-.602-1.385-.752-.51-.15-1.046-.191-1.572-.12H77.3v8.015h4.905zm-6.95-8.028v7.32l-5.64-7.32H67.79v8.014h1.092v-7.24l5.64 7.254h1.824V3.535l-1.09-.014h-.002zm-9.59 8.028h1.147V3.535h-1.147v8.014zm-1.934-8.028l-2.819 7.32-2.694-7.32H56.56l-2.708 7.32-2.75-7.32H49.94l3.082 8.014h1.68l2.694-7.212 2.625 7.212h1.712l3.152-8.014H63.73zm-15.572 0l-2.971 3.744-2.985-3.744H40.89l3.69 4.67v3.36h1.12v-3.36l3.785-4.67h-1.326zm-15.96 0v8.014h1.147v-3.72h.995l4.588 3.72h1.533l-5.14-4.132 4.587-3.882H38.42l-4.09 3.496h-.995V3.52l-1.136.001zm-1.05 2.1c0-1.022-.346-1.644-1.022-1.837-.844-.219-1.713-.321-2.584-.305h-.276c-.849-.027-1.695.095-2.501.36-.623.234-.926.84-.926 1.81 0 1.064.386 1.7 1.16 1.894.896.22 1.814.335 2.736.344h.456c.152 0 .304.014.456.014.445-.03.889.075 1.271.304.116.15.201.32.251.503.05.183.063.374.04.561 0 .677-.166 1.106-.48 1.258-.552.204-1.14.289-1.727.248h-.954c-.605.073-1.218-.043-1.755-.33-.307-.414-.44-.93-.373-1.44h-1.08c.002.032-.003.065-.013.096-.012.03-.017.064-.015.096-.01.032-.015.065-.013.098v.097c0 1.008.345 1.63 1.023 1.837.84.237 1.71.344 2.583.318h.48c.166 0 .318 0 .48-.014.162-.015.304-.014.47-.014.165 0 .317-.014.48-.014.911-.068 1.478-.331 1.713-.76.233-.491.347-1.031.331-1.575 0-1.05-.36-1.672-1.063-1.852-.832-.206-1.686-.308-2.543-.303h-.634c-.208 0-.429-.014-.65-.028-.445.037-.887-.102-1.23-.386-.196-.293-.288-.644-.263-.995v-.18c0-.07.013-.12.013-.193.026-.147.079-.287.153-.416.082-.143.208-.255.36-.318.156-.075.325-.122.498-.138.193-.027.4-.055.607-.068.18-.014.36-.014.526-.014h.981c.524-.055 1.053.046 1.52.29.144.16.256.348.327.552.071.204.101.42.088.636h1.105l-.015-.138.01.002z"/>
</svg>
