<svg xmlns="http://www.w3.org/2000/svg" width="82" height="25" fill="none" viewBox="0 0 82 25">
    <path fill="#B5B5B5" d="M10.213 7.297c-1.081-.3-2.103-.6-3.065-.721-.54.721-.961 1.562-1.382 2.464-.42.901-.72 1.803-.961 2.704.72.601 1.622 1.202 2.584 1.803.36-1.022.781-2.103 1.262-3.185.48-1.142 1.021-2.163 1.562-3.065zM17.725 18.294c-.84-.12-1.742-.36-2.824-.72-.541.9-1.082 1.682-1.623 2.403.902.18 1.803.3 2.705.36.6-.66 1.201-1.322 1.742-2.043zM7.629 17.513c.781.541 1.562.962 2.404 1.322.841.36 1.742.721 2.584.962.6-.721 1.142-1.563 1.682-2.404-1.081-.36-2.103-.781-3.064-1.202-.962-.42-1.984-.961-2.945-1.502-.24 1.021-.48 1.983-.661 2.824zM14 4.232l-.181.18c-.06.06-.12.12-.18.24.841.241 1.682.542 2.464.902.78.36 1.502.721 2.283 1.262 0-.18.06-.36.06-.48.06-.481.06-.962.06-1.443-1.021-.721-2.223-1.262-3.485-1.562-.36.24-.661.54-1.022.901zM19.407 15.35c.36-.841.721-1.743.962-2.584-.721-.601-1.563-1.202-2.404-1.683-.36 1.082-.781 2.103-1.202 3.065-.42 1.021-.961 1.983-1.502 2.945.961.3 1.983.54 2.884.72.421-.78.842-1.562 1.262-2.463zM21.391 9.28c.3.3.541.661.781.962-.06-.24-.12-.421-.18-.661-.18-.541-.42-1.082-.66-1.563.06.48.06.901.06 1.262zM17.605 10.242c.3-1.022.54-1.983.72-2.885-.78-.48-1.562-.961-2.403-1.322-.841-.42-1.743-.721-2.584-.962-.601.722-1.142 1.563-1.683 2.404 1.082.36 2.104.782 3.065 1.202 1.022.541 1.983 1.022 2.885 1.563zM20.73 7.357c0-.12-.06-.3-.06-.42-.48-.662-1.022-1.203-1.623-1.683 0 .36 0 .72-.06 1.081 0 .24-.06.541-.12.782.721.48 1.382 1.021 1.923 1.622 0-.48 0-.961-.06-1.382zM9.732 11.023c-.48 1.082-.901 2.163-1.202 3.125.902.54 1.923 1.021 3.005 1.562.962.42 1.983.842 3.125 1.262.54-.961 1.082-1.923 1.563-3.005.48-1.021.84-2.043 1.262-3.125-.902-.54-1.923-1.081-3.005-1.562-1.142-.48-2.164-.901-3.125-1.202-.601.781-1.082 1.743-1.623 2.945zM20.49 12.165c.18-.902.3-1.803.36-2.705-.6-.66-1.322-1.262-2.043-1.803-.12.842-.36 1.743-.721 2.825.841.6 1.683 1.142 2.404 1.683zM16.162 20.878c-.36.3-.66.601-1.021.842.24-.06.54-.12.78-.24.542-.18 1.083-.421 1.563-.662-.36.06-.66.06-1.021.06h-.3zM19.107 18.475c-.12 0-.18 0-.3-.06-.18 0-.301-.06-.481-.06-.481.66-1.022 1.322-1.623 1.923.48 0 .902-.06 1.382-.12.18 0 .36-.06.541-.12.601-.482 1.202-.962 1.683-1.563h-.12c-.36.06-.721.06-1.082 0zM11.956 20.638c.12-.12.18-.24.3-.3 0 0 0-.06.06-.06-.84-.24-1.682-.541-2.403-.902-.782-.36-1.563-.781-2.284-1.262v.06c0 .18-.06.3-.06.421-.06.48-.06.962-.06 1.442 1.021.782 2.163 1.262 3.425 1.563.24-.18.601-.541 1.022-.962zM21.15 13.487l-.18-.18c-.06-.06-.12-.12-.24-.18-.24.84-.541 1.682-.902 2.463-.36.841-.78 1.563-1.262 2.284h.06c.12 0 .301.06.421.06.36.06.721.06 1.082.06h.42c.722-1.022 1.263-2.163 1.503-3.365-.18-.421-.48-.782-.901-1.142zM22.112 11.203c-.24-.36-.48-.721-.781-1.082-.06.902-.18 1.683-.42 2.524.18.18.36.36.54.481.3.24.54.541.781.841.12-.78.12-1.562.06-2.283 0-.24-.06-.36-.18-.48zM12.858 20.398c-.18.24-.36.42-.541.6-.3.301-.54.541-.841.782.48.06.961.12 1.502.12.24 0 .54 0 .781-.06.18-.12.3-.18.42-.24.422-.24.782-.541 1.083-.782-.782-.06-1.623-.18-2.404-.42zM3.963 10.963c.24-.781.481-1.563.842-2.344.36-.781.78-1.562 1.202-2.223-.24 0-.421-.06-.601-.06-.481-.06-.902-.06-1.323-.06-.72 1.021-1.262 2.163-1.502 3.365.24.3.54.6.901.961.18.12.301.24.481.36zM4.504 5.554c.48-.661.961-1.262 1.502-1.803-.48 0-.901.06-1.382.12-.06 0-.12 0-.18.06-.601.421-1.202.902-1.623 1.503.3 0 .601 0 .962.06.24 0 .48.06.721.06zM4.024 11.924l-.601-.6c-.12.6-.12 1.261-.06 1.922.06.06.06.12.12.18.18.301.42.601.721.902.06-.661.12-1.322.3-1.983-.18-.12-.36-.3-.48-.42zM11.835 4.052c.541.06 1.022.18 1.563.3.18-.18.3-.36.48-.54.241-.241.482-.481.722-.662-.721-.12-1.442-.12-2.164-.06-.06.06-.12.06-.18.12-.3.18-.54.361-.841.601-.842-.18-1.623-.3-2.404-.3-.661.6-1.322 1.382-1.923 2.223.901.18 1.983.421 3.005.782.6-.962 1.142-1.743 1.742-2.464zM4.805 12.585c-.24 1.022-.36 1.984-.36 2.885l.54.54c0 .482.06.962.12 1.443 0 .12.06.24.06.36.481.722 1.082 1.383 1.803 1.924 0-.42 0-.841.06-1.262 0-.24.06-.541.12-.841-.18-.06-.36-.18-.48-.301.12-.901.36-1.863.721-2.945-.962-.6-1.803-1.202-2.584-1.803zM52.4 14.388c-.54.902-1.442 1.382-2.524 1.382-1.682 0-2.944-1.262-2.944-3.004 0-1.743 1.262-3.065 2.944-3.065.842 0 1.563.3 2.104.841l-.36.42c-.422-.42-1.023-.72-1.744-.72-1.382 0-2.343 1.081-2.343 2.524 0 1.442 1.021 2.524 2.343 2.524.842 0 1.563-.421 1.983-1.022v-1.262h-1.863v-.54H52.4v1.922zM53.182 15.71l2.404-6.07 2.403 6.07h-.6l-.481-1.202h-2.645l-.48 1.202h-.601zm1.262-1.743h2.283l-1.141-2.824-1.142 2.824zM58.77 15.71l.662-6.07 2.403 3.726L64.3 9.642l.601 6.07h-.6l-.421-4.448-2.044 3.125-2.043-3.125-.48 4.447h-.541zM66.522 9.76v5.95h-.54V9.76h.54zM72.412 9.76v6.07l-4.026-4.807v4.627h-.541V9.58l4.026 4.748V9.761h.541zM79.083 14.388c-.54.902-1.442 1.382-2.524 1.382-1.683 0-2.945-1.262-2.945-3.004 0-1.743 1.262-3.065 2.945-3.065.841 0 1.562.3 2.103.841l-.36.42c-.421-.42-1.022-.72-1.743-.72-1.382 0-2.344 1.081-2.344 2.524 0 1.442 1.022 2.524 2.344 2.524.841 0 1.562-.421 1.983-1.022v-1.262H76.68v-.54h2.404v1.922zM27.821 9.28c-1.803 0-3.125 1.382-3.125 3.245 0 1.863 1.322 3.245 3.125 3.245s3.125-1.382 3.125-3.245c0-1.923-1.262-3.245-3.125-3.245zm0 5.529c-1.262 0-2.163-.962-2.163-2.284 0-1.322.901-2.283 2.163-2.283 1.262 0 2.164.961 2.164 2.283s-.902 2.284-2.164 2.284zM33.59 9.46h-1.923v6.19h.721v-2.404h1.202c1.082 0 1.983-.841 1.983-1.923S34.732 9.46 33.59 9.46zm0 2.945h-1.202v-1.923h1.202c.54 0 1.022.36 1.022.961s-.421.962-1.022.962zM39.6 13.427c0 .78-.541 1.382-1.262 1.382s-1.262-.601-1.262-1.382V9.4h-.842v4.027c0 1.262 1.022 2.283 2.284 2.283 1.262 0 2.284-1.021 2.284-2.284V9.4H39.6v4.027zM43.627 11.984c-.06 0-.12-.06-.18-.06-.602-.24-.962-.42-.962-.961 0-.721.78-.721.901-.721.36 0 .721.12 1.142.42l.18.12.541-.72-.18-.121c-.36-.3-.962-.6-1.683-.6-1.082 0-1.863.66-1.863 1.682 0 1.262.902 1.562 1.623 1.863l.12.06c.721.24 1.142.48 1.142 1.082 0 .78-.842.84-1.082.84-.54 0-.962-.18-1.322-.48l-.18-.12-.601.721.12.12c.54.481 1.142.721 1.923.721 1.022 0 2.043-.54 2.043-1.803 0-1.322-.841-1.742-1.682-2.043z"/>
</svg>
