<svg xmlns="http://www.w3.org/2000/svg" width="58" height="25" fill="none" viewBox="0 0 58 25">
    <path fill="#B5B5B5" d="M11.549 7.55c-.17-1.68.629-2.028 1.836-2.33.632-.128 1.275-.19 1.92-.19 0 0-2.581.349-2.93 1.784-.323 1.32 1.14 4.44 1.14 4.44-.937-1.063-1.61-2.332-1.966-3.703zM6.356 17.244c-.455-.386-.643-.72-.572-1.038l.059-.446c.016-.146.087-.28.199-.376.111-.095.254-.144.4-.138.066-.008.132-.002.195.019.062.02.12.055.166.101.026.034.044.073.052.115.008.042.006.085-.006.126l-.258 1.151h1.727l.251-1.125c.034-.108.042-.222.023-.333-.018-.11-.063-.216-.13-.307-.245-.307-.84-.463-1.75-.463-1.606 0-2.52.43-2.706 1.278l-.176.793c-.026.108-.026.221 0 .329.027.108.079.208.152.292.44.459.916.884 1.42 1.272.446.381.628.72.56 1.02l-.187.84c-.034.152-.161.336-.569.336-.077.01-.155.002-.23-.022-.073-.024-.14-.064-.197-.117-.027-.036-.046-.076-.054-.12-.009-.043-.007-.088.005-.13l.328-1.471H3.332l-.34 1.513c-.032.107-.039.22-.02.331.02.111.064.216.13.306.264.329.91.496 1.92.496 1.611 0 2.52-.442 2.72-1.313l.202-.901c.033-.127.036-.26.008-.387-.028-.128-.086-.248-.168-.349-.437-.469-.915-.898-1.428-1.282zM13.31 16.346c-.24-.298-.813-.45-1.708-.45-1.493 0-2.33.36-2.488 1.063l-.222.993h1.648c.01-.068.022-.155.034-.255.023-.17.043-.293.062-.378.12-.516.337-.778.657-.778.064-.006.127.002.187.024s.114.057.158.103c.03.043.051.092.06.144.009.052.005.106-.01.156l-.19.848c-.028.128-.184.26-.852.48-.59.175-1.16.41-1.704.7-.115.062-.217.147-.299.248-.082.102-.144.22-.18.345l-.256 1.147c-.023.072-.03.149-.018.223.012.075.042.146.087.207.172.13.369.226.579.28.21.055.428.068.642.038.82 0 1.128-.143 1.243-.263l.3-.313-.11.497h1.493l.994-4.452c.03-.103.037-.211.018-.317-.018-.105-.062-.205-.126-.29zm-2.408 4.142c-.023.112-.087.211-.18.278-.093.067-.208.096-.321.082-.066.007-.133 0-.196-.023-.062-.023-.119-.06-.165-.108-.03-.039-.05-.085-.058-.133-.009-.048-.006-.098.008-.145l.232-1.038c.06-.265.345-.437.872-.526l.18-.03-.372 1.643zM18.187 16.084c-.274-.133-.576-.199-.88-.192-.415-.026-.831.042-1.217.198l-.231.12.36-1.624h-1.72L12.977 21.4h1.292l.24-.218.075.04c.318.17.672.259 1.032.257.442.008.88-.074 1.29-.24.144-.042.275-.118.383-.223.107-.105.186-.234.231-.377l.919-4.105c.044-.194-.033-.33-.252-.45zm-1.56.86l-.791 3.54c-.025.113-.091.213-.187.28-.095.067-.213.095-.328.08-.066.007-.132 0-.195-.023-.062-.022-.119-.058-.165-.106-.03-.04-.05-.086-.058-.135-.009-.048-.006-.098.008-.146l.793-3.547c.036-.159.155-.346.52-.346.063-.008.127 0 .188.02.06.02.116.055.161.1.032.04.053.087.062.138.01.05.007.101-.007.15l-.001-.005zM23.182 16.346c-.24-.298-.812-.45-1.706-.45-1.494 0-2.332.36-2.49 1.063l-.221.993h1.647c.011-.068.023-.155.034-.255.022-.17.043-.293.062-.378.12-.516.337-.778.659-.778.063-.006.127.002.186.024.06.022.114.057.157.103.031.043.052.092.06.144.01.052.006.106-.01.156l-.187.848c-.03.128-.186.26-.853.48-.59.175-1.162.41-1.705.7-.115.063-.217.147-.3.249-.082.101-.143.218-.18.344l-.255 1.147c-.023.072-.03.149-.017.223.012.075.042.146.087.207.165.208.587.318 1.22.318.819 0 1.129-.143 1.244-.263l.3-.313-.11.497h1.491l.995-4.452c.03-.103.037-.211.018-.317-.019-.105-.062-.205-.126-.29zm-2.407 4.142c-.023.112-.087.211-.18.278-.093.067-.208.096-.322.082-.066.007-.133 0-.195-.023-.063-.023-.119-.06-.165-.108-.03-.04-.05-.085-.058-.133-.009-.048-.006-.098.008-.145l.232-1.038c.06-.265.345-.437.872-.526l.178-.03-.37 1.643zM27.357 18.812l-.044.25H26.7l.044-.25c0-.022 0-.033-.022-.033h-2.04c-.009 0-.018.003-.025.009-.007.006-.012.014-.013.024l-.12.672c0 .02 0 .03.027.03h2.04c.079-.002.158.013.23.045.073.032.137.08.188.14.052.061.09.133.108.21.02.078.02.16.003.237l-.12.673c-.037.175-.13.332-.267.446-.137.115-.308.18-.486.186h-2.04c-.08.004-.159-.011-.232-.043-.073-.032-.138-.08-.19-.141-.05-.061-.088-.134-.107-.211-.018-.078-.018-.159 0-.237l.043-.25h.609l-.045.25c0 .02 0 .032.028.032h2.04c.02 0 .03-.011.034-.032l.12-.673c0-.02 0-.031-.023-.031h-2.04c-.08.004-.16-.01-.233-.042-.073-.032-.138-.08-.19-.142-.05-.061-.087-.133-.106-.21-.019-.079-.02-.16-.002-.237l.12-.672c.036-.175.13-.333.266-.448.137-.115.308-.18.487-.185h2.04c.08-.003.158.012.23.044.073.032.137.08.188.141.053.06.09.133.11.21.02.078.021.16.003.238zM29.92 18.815c.08-.003.158.012.23.044.073.032.137.08.188.14.05.062.087.133.106.21.018.076.019.157.002.234l-.24 1.38c-.036.173-.13.328-.265.442-.135.114-.305.18-.481.185h-1.476l-.185 1.044h-.6l.648-3.679h2.073zm-.322 2.008l.24-1.38c0-.022 0-.033-.027-.033h-1.44c-.005 0-.009 0-.013.002-.005.001-.009.003-.012.006-.004.003-.007.007-.009.011l-.003.014-.24 1.38c0 .021 0 .032.026.032h1.44c.005 0 .01 0 .014-.002l.012-.006.008-.011c.002-.004.004-.009.004-.013zM31.525 18.815h1.44c.08-.003.158.012.23.044.073.032.137.08.188.14.05.061.087.133.106.21.019.076.02.156.003.234l-.24 1.38c-.036.173-.13.329-.265.443-.136.114-.306.179-.483.184h-1.44c-.079.004-.158-.011-.23-.043-.072-.032-.136-.08-.187-.14-.05-.061-.087-.133-.106-.21-.019-.077-.02-.157-.002-.234l.24-1.38c.036-.174.129-.33.264-.444.136-.113.306-.178.482-.184zm1.34.6h-1.44c-.005 0-.01 0-.014.002-.005 0-.01.003-.013.006l-.008.011c-.003.004-.004.009-.004.014l-.24 1.38c0 .021 0 .032.026.032h1.44c.005 0 .01 0 .014-.002l.012-.006.008-.011c.002-.004.004-.009.004-.013l.24-1.38c.004-.027-.004-.038-.026-.038v.005zM34.652 18.815h1.484l-.104.6H34.55c-.005 0-.01 0-.014.002-.004.001-.009.003-.012.006-.004.003-.007.007-.009.011l-.004.014-.353 2.007h-.6l.352-2.007c.037-.174.13-.33.266-.444.135-.113.305-.178.482-.184l-.006-.005zM37.996 19.41h-1.041l-.25 1.413c0 .021 0 .032.027.032h1.01l-.104.6h-1.01c-.08.004-.159-.01-.231-.042-.073-.032-.138-.08-.188-.141-.051-.06-.087-.132-.106-.21-.019-.077-.019-.157-.001-.234l.506-2.87h.6l-.152.862h1.043l-.103.59zM41.054 19.444l-.02.113h-.6l.02-.113c0-.022 0-.032-.027-.032h-1.44l-.014.001-.012.007-.008.01-.003.014-.065.36c0 .018 0 .026.027.026h1.44c.08-.003.159.011.232.043.073.032.137.08.188.141.05.061.085.133.104.21.018.076.019.156.002.233l-.064.36c-.032.174-.124.331-.262.443-.133.117-.304.183-.48.184h-1.44c-.08.004-.159-.01-.231-.043-.073-.032-.137-.08-.187-.141-.051-.061-.087-.132-.106-.21-.02-.076-.02-.156-.003-.233l.02-.113h.6l-.02.113c-.003.021.006.032.027.032h1.44c.005 0 .01 0 .014-.002l.012-.006.008-.011c.002-.004.003-.009.003-.013l.066-.36c0-.018-.001-.027-.029-.027h-1.44c-.078.004-.157-.011-.23-.043-.072-.032-.136-.08-.187-.14-.051-.06-.087-.132-.106-.209-.019-.077-.02-.157-.002-.234l.063-.36c.037-.173.13-.329.266-.442.135-.114.304-.18.48-.186h1.441c.08-.003.158.012.23.044.073.032.136.08.187.14.051.061.088.133.106.21.02.077.02.157.003.234h-.003z"/>
    <path fill="#B5B5B5" d="M55.499 13.355c-.31-1.119-.883-2.148-1.668-3.003-.786-.856-1.763-1.512-2.851-1.917l-.223-.078-.12-.042C48.371 7.528 35.39 3.07 28.834 2.107 20.358.863 11.37 1.5 9.94 4.804c-1.32 3.061 3.84 7.377 3.84 7.377s-3.882-4.065-2.418-6.408c1.32-2.117 7.92-1.353 16.393 1.618 6.6 2.315 12.342 9.061 14.03 11.19.606 1.238 1.546 2.282 2.715 3.012 1.169.73 2.52 1.117 3.898 1.117h.18c1.275-.034 2.52-.398 3.612-1.054 1.094-.657 1.999-1.584 2.628-2.693.48-.843.786-1.773.903-2.736.116-.962.04-1.939-.223-2.872zm-10.068 8.457c-.127-.101-.336-.268-.547-.446-.212-.177-.418-.382-.54-.504.074-.12.206-.334.37-.626.165-.291.36-.59.48-.775.232.013.786.05 1.392.097.434.035.871.01 1.299-.074.3.388.668.718 1.087.973.422.255.79.48 1.04.623-.081.277-.198.543-.346.79-.12.21-.24.383-.34.528-1.326.186-2.678-.018-3.89-.586h-.005zM51.9 9.126c.71.4 1.347.918 1.883 1.532.022.169.048.36.078.6.062.404.072.814.029 1.22l-2.112.26c-.324-.29-.85-.753-1.307-1.11-.38-.3-.793-.559-1.23-.769l-.19-1.851c.376-.105.76-.18 1.147-.223.314-.032.6-.057.819-.076.303.118.599.257.883.415v.002zm2.135 2.107l-.042-.32c.587.742 1.019 1.595 1.272 2.507.17.616.259 1.251.262 1.89-.163-.09-.393-.194-.54-.26-.053-.416-.156-.824-.31-1.215-.19-.43-.492-.987-.629-1.238.064-.453.06-.913-.013-1.364zm-7.913 3.889c-.154.11-.584.416-1.095.796-.418.31-.709.518-.862.626-.373-.165-.733-.355-1.08-.57-.356-.221-.68-.492-.96-.804-.007-.288-.013-.897.035-1.515.02-.372.106-.738.255-1.08.3-.356.655-.663 1.051-.908.441-.316.916-.58 1.417-.79l1.56 1.217c-.152.429-.241.877-.268 1.33-.048.594-.055 1.244-.053 1.7v-.002zm-1.399-4.372c-.478.21-.933.468-1.357.773-.354.234-.68.506-.976.81l-.329-.257c.042-.082.082-.164.128-.24.854-1.504 2.223-2.647 3.855-3.22.035.12.065.218.085.295-.253.228-.488.476-.704.74-.258.352-.492.72-.703 1.103l.001-.004zm1.625 2.687c.024-.46.12-.913.283-1.344.443-.267.91-.493 1.396-.673l1.183-.383c.408.201.795.444 1.153.726.47.368 1.017.85 1.334 1.136.01.444-.017.887-.078 1.326-.092.743-.174 1.186-.209 1.359-.29.162-.773.41-1.491.72-.446.202-.901.38-1.366.535-.17-.112-.746-.488-1.32-.902-.327-.231-.639-.484-.932-.758-.006-.447 0-1.124.047-1.742zm1.944 4.703c.158-.579.24-.939.283-1.12.482-.157.953-.34 1.413-.552.729-.318 1.213-.566 1.508-.73.14.099.426.303.84.608.46.336.857.672 1.023.817-.057.514-.142 1.025-.254 1.53-.102.433-.253.854-.45 1.254-.309.299-.67.538-1.066.707-.438.175-.896.293-1.364.352-.24-.142-.67-.393-1.171-.7-.412-.25-.773-.575-1.065-.96.043-.191.135-.588.303-1.206zm1.889-9.533c-.461.053-.917.147-1.361.28-.366-.067-.735-.116-1.105-.145-.477-.005-.952.025-1.424.09-.018-.067-.044-.157-.08-.275.65-.214 1.33-.332 2.014-.35h.178c.174 0 .347.007.52.02.053 0 .105.01.156.016.12.012.247.027.37.045l.166.027c.12.022.251.047.376.076.045.01.091.02.137.032.168.042.336.09.5.144l-.447.04zm-8.07 10.08l-.023-.042c-.137-.267-.257-.543-.36-.825l-.012-.03c-.047-.13-.09-.261-.131-.393l-.015-.05c-.078-.27-.142-.543-.189-.82.084-.173.217-.437.335-.647.101-.18.227-.345.374-.49.271.28.576.528.908.735.338.21.69.397 1.053.56.089.513.228 1.015.417 1.5.161.412.351.813.57 1.2-.12.189-.315.492-.471.77-.156.277-.274.47-.348.59-.056-.017-.225-.07-.35-.113-.16-.07-.313-.154-.458-.25l.055.098c-.435-.419-.815-.891-1.13-1.407-.084-.13-.157-.259-.228-.389l.002.003zm.401.88c-.076-.108-.15-.216-.222-.327.071.108.146.216.223.324v.003zm1.504 1.544c-.08-.061-.16-.12-.24-.189l.24.186v.003zm-.324-.26c-.102-.087-.2-.176-.296-.267.096.09.194.178.296.264v.003zm.68.512c-.084-.056-.167-.113-.248-.172.08.053.164.113.248.173v-.001zm8.936-1.048c-.165-.098-.322-.21-.47-.335.193-.397.34-.815.441-1.245.116-.522.203-1.05.261-1.58.343-.31.655-.652.932-1.022.201-.279.38-.572.537-.878.165.071.325.152.48.24l.031.018c-.046 1.83-.797 3.573-2.097 4.864l-.115-.062zm-10.22-.042c.098.105.198.207.302.306-.104-.102-.202-.204-.301-.308v.002zm-.53-.645c.066.09.136.18.206.268-.07-.092-.14-.18-.206-.27v.002zm.26.334c.077.095.159.188.24.279-.082-.094-.163-.186-.24-.28v.001zm1.656 1.47c.12.075.24.148.36.219-.123-.073-.243-.146-.36-.222v.002z"/>
    <path fill="#B5B5B5" d="M55.5 13.355c-.442-1.58-1.397-2.968-2.715-3.944-1.318-.977-2.925-1.486-4.565-1.447-1.938.05-3.778.86-5.122 2.255-1.345 1.396-2.085 3.265-2.062 5.203.023 1.938.808 3.79 2.186 5.152 1.377 1.364 3.236 2.13 5.174 2.133h.182c1.275-.035 2.518-.398 3.612-1.055 1.093-.656 1.998-1.584 2.628-2.693.478-.842.785-1.771.902-2.733.117-.962.043-1.938-.22-2.87zm-.788 5.542c-.705 1.249-1.764 2.261-3.043 2.908-1.28.647-2.723.9-4.147.727-1.424-.173-2.764-.765-3.851-1.7-1.088-.934-1.874-2.17-2.259-3.552-.384-1.382-.35-2.846.097-4.209.448-1.362 1.29-2.561 2.419-3.445 1.13-.884 2.495-1.414 3.925-1.521 1.43-.108 2.86.21 4.109.916.829.468 1.558 1.094 2.145 1.843.587.75 1.02 1.608 1.276 2.525.255.917.328 1.876.213 2.82-.115.946-.416 1.859-.884 2.688z"/>
</svg>
