<svg xmlns="http://www.w3.org/2000/svg" width="35" height="49" fill="none" viewBox="0 0 35 49">
    <path fill="#fff" d="M16.716 11.727c-3.116 0-5.654 2.537-5.654 5.653 0 3.116 2.538 5.653 5.654 5.653 3.115 0 5.653-2.537 5.653-5.653.032-3.115-2.506-5.653-5.653-5.653z"/>
    <path fill="#92278F" d="M4.767 7.39c-.032.065-.032.13 0 .194.032.032.032.064.064.064l6.007 3.5c.064.033.128.033.193 0 .032 0 .032-.031.064-.063v-.033c.546-.995 1.317-1.862 2.313-2.537.995-.707 2.055-1.124 3.18-1.317h.032c.032 0 .032 0 .064-.032.064-.032.096-.129.064-.193L15.463.163c0-.031-.032-.063-.032-.063-.032-.065-.096-.097-.193-.065h-.032c-2.12.386-4.207 1.22-6.103 2.57-1.798 1.22-3.276 2.89-4.336 4.786z"/>
    <path fill="#005BAA" d="M1.33 20.56c.033.064.097.096.161.129.032 0 .064 0 .097-.033l6.488-2.505c.064-.032.128-.096.128-.16v-.097c-.417-1.06-.61-2.184-.546-3.405.064-1.188.418-2.312.964-3.308v-.032c0-.032.032-.032.032-.064 0-.065-.032-.161-.096-.193L2.455 7.616c-.032 0-.064-.032-.097-.032-.064 0-.128.032-.16.096C1.17 9.575.528 11.727.367 14.04c-.193 2.312.16 4.529.964 6.52z"/>
    <path fill="#009BDF" d="M9.553 31.384c.064.033.128 0 .193-.064.032-.032.032-.064.032-.096l2.056-6.617c.032-.064 0-.16-.065-.192-.032-.033-.032-.033-.064-.033h-.032c-1.092-.32-2.12-.867-2.987-1.67-.9-.803-1.574-1.767-1.992-2.794v-.032c0-.033-.032-.033-.032-.065-.064-.064-.128-.064-.193-.032L.11 22.551c-.031 0-.064.033-.064.065-.032.064-.064.128-.032.192.835 1.992 2.152 3.823 3.855 5.364 1.67 1.51 3.63 2.602 5.685 3.212z"/>
    <path fill="#00A651" d="M23.076 31.706c.064-.032.096-.097.064-.193 0-.032-.032-.064-.032-.096l-3.855-5.75c-.032-.064-.128-.096-.192-.064-.032 0-.032 0-.065.032 0 0-.032 0-.032.032-.931.643-1.991 1.092-3.18 1.285-1.188.193-2.344.096-3.436-.193h-.097c-.064 0-.128.064-.16.129l-1.831 6.68v.097c0 .064.064.129.128.16h.032c2.088.579 4.337.74 6.585.354 2.248-.385 4.304-1.253 6.07-2.473z"/>
    <path fill="#FFF200" d="M31.909 21.395c0-.064-.032-.128-.097-.16-.032-.032-.064-.032-.096-.032l-6.906-.546c-.064 0-.128.032-.193.096 0 .032-.032.032-.032.064v.032c-.064 1.124-.385 2.249-.963 3.309s-1.381 1.927-2.28 2.57h-.033c-.032 0-.032.031-.064.063-.032.065-.032.161 0 .193l4.111 5.589.064.064c.065.032.129.032.193 0 1.735-1.252 3.276-2.923 4.369-4.946 1.156-1.992 1.766-4.144 1.927-6.296z"/>
    <path fill="#F68B1F" d="M29.275 8.033c-.064-.032-.129-.064-.193-.032-.032 0-.064.032-.064.064l-4.786 5.043c-.032.064-.064.129-.032.193 0 .032.032.032.032.064l.032.032c.835.771 1.51 1.703 1.96 2.827.45 1.124.61 2.28.545 3.405v.096c.033.064.097.128.161.128l6.938.322c.032 0 .064 0 .096-.033.065-.032.097-.096.129-.16v-.032c.128-2.152-.225-4.4-1.092-6.52-.835-2.088-2.152-3.92-3.726-5.397z"/>
    <path fill="#ED1C24" d="M17.166 1.834c-.065 0-.129.064-.161.129v.096l1.028 6.874c0 .064.064.128.128.16h.097c1.124-.192 2.28-.128 3.436.225 1.157.321 2.185.9 3.02 1.67h.032c.032 0 .032.032.064.032.064.033.16 0 .193-.064l4.529-5.235c.032-.032.032-.032.032-.065.032-.064 0-.128-.064-.192-1.606-1.414-3.598-2.538-5.814-3.18-2.152-.675-4.4-.803-6.52-.45z"/>
    <path fill="#000" d="M16.715 11.63c-3.18 0-5.75 2.57-5.75 5.75s2.57 5.75 5.75 5.75 5.75-2.57 5.75-5.75-2.57-5.75-5.75-5.75zm4.176 8.994c.096-.225.128-.514.128-.706-.128.096-.224.224-.385.32-.386.29-.835.483-1.22.547l-1.093-1.22.803 1.413c-.224.353-.514.706-.931 1.027-.129.097-.257.193-.418.257.193.032.482.097.707.097-.546.192-1.156.32-1.767.32-.61 0-1.22-.095-1.766-.32.257 0 .514-.032.739-.097-.129-.064-.29-.16-.418-.257-.386-.289-.707-.642-.932-.995l.803-1.414-1.124 1.221c-.417-.096-.835-.29-1.22-.546-.129-.096-.257-.193-.386-.321.032.225.065.482.129.706-.707-.899-1.124-2.023-1.124-3.244v-.16c.064.257.192.481.32.674.033-.16.065-.321.13-.482.16-.481.385-.867.674-1.188l1.574.321v-.032l-1.478-.675c-.032-.417 0-.867.16-1.349.065-.16.097-.32.193-.45-.192.097-.481.226-.674.386.707-1.028 1.734-1.799 2.955-2.152-.225.129-.418.354-.578.514.16-.032.321-.032.482-.032.481 0 .963.096 1.349.289l.192 1.606h.032l.193-1.606c.386-.16.835-.29 1.35-.29.16 0 .32 0 .481.033-.16-.16-.353-.385-.578-.514 1.22.354 2.28 1.124 2.955 2.152-.193-.16-.482-.289-.675-.385.065.128.129.289.193.45.16.45.193.93.16 1.348l-1.477.675v.032l1.574-.321c.29.321.514.707.675 1.188.064.161.096.322.128.482.096-.193.257-.45.321-.674v.16c-.032 1.189-.45 2.313-1.156 3.212z"/>
    <path fill="#000" d="M14.403 16.61l.9 2.73h2.858l.9-2.73-2.345-1.671-2.313 1.67z"/>
    <path fill="#fff" d="M.077 38.194v7.709h4.4v-1.735H2.07v-5.974H.077zM8.172 41.342c-.9 0-1.446.674-1.446 1.477 0 .867.546 1.574 1.413 1.574.836 0 1.51-.61 1.51-1.51-.032-.931-.674-1.541-1.477-1.541zm-3.341 1.51c0-1.735 1.285-3.245 2.987-3.245.739 0 1.22.257 1.767.739v-.642h1.83v6.199H9.554v-.61s-.675.738-1.831.738c-1.735.032-2.891-1.188-2.891-3.18zM16.94 45.903h-4.432v-7.71h1.991v5.975h2.441v1.735zM19.639 45.903h-1.863v-6.167h1.863v6.167zm-2.056-7.741c0-.61.514-1.124 1.124-1.124.61 0 1.124.481 1.124 1.124 0 .642-.514 1.156-1.156 1.156-.61-.032-1.092-.514-1.092-1.156zM23.525 41.213c-.867 0-1.285.707-1.285 1.478 0 .803.482 1.445 1.285 1.445.931 0 1.445-.739 1.445-1.445-.032-.803-.482-1.478-1.445-1.478zm-3.116 1.478c0-1.67 1.06-3.084 2.666-3.084.771 0 1.317.257 1.831.803v-.706h1.767v5.428c0 1.895-1.446 2.89-3.148 2.89-1.51 0-2.827-.77-3.02-2.151h2.088c.257.417.514.514.996.514.643 0 1.253-.29 1.253-.964v-.45c-.354.321-1.028.707-1.767.707-1.574.032-2.666-1.285-2.666-2.987zM30.88 41.342c-.899 0-1.445.674-1.445 1.477 0 .867.546 1.574 1.413 1.574.835 0 1.51-.61 1.51-1.51-.032-.931-.674-1.541-1.477-1.541zm-3.34 1.51c0-1.735 1.285-3.245 2.987-3.245.739 0 1.22.257 1.767.739v-.642h1.83v6.199h-1.862v-.61s-.675.738-1.831.738c-1.735.032-2.891-1.188-2.891-3.18z"/>
</svg>
