<svg xmlns="http://www.w3.org/2000/svg" width="43" height="25" fill="none" viewBox="0 0 43 25">
    <path fill="#B5B5B5" d="M4.59 14.956V.768h1.196v7.826c.252-.315.573-.568.939-.739.366-.171.766-.256 1.17-.249.472-.012.94.096 1.358.314.365.19.656.496.826.87.19.515.275 1.063.249 1.611v4.556H9.134v-4.556c.042-.476-.096-.95-.388-1.33-.143-.143-.315-.254-.504-.326-.19-.072-.392-.102-.594-.09-.352 0-.698.097-.998.281-.3.173-.534.44-.666.761-.15.424-.216.873-.198 1.322v3.933l-1.195.004zM17.307 12.64l1.233.156c-.157.677-.538 1.28-1.082 1.713-.676.453-1.485.663-2.296.598-.812-.065-1.576-.403-2.171-.959-.642-.757-.966-1.733-.905-2.724-.064-1.021.263-2.028.915-2.817.3-.329.667-.59 1.077-.762.41-.173.853-.254 1.298-.239.433-.014.863.067 1.262.236.398.17.755.424 1.046.745.638.774.958 1.762.894 2.764 0 .072 0 .181-.006.325h-5.253c-.003.664.23 1.306.657 1.814.186.204.414.366.668.475.254.108.528.161.804.155.403.01.798-.113 1.122-.352.35-.296.607-.688.737-1.128zm-3.92-1.97h3.933c-.012-.488-.17-.961-.451-1.36-.174-.225-.398-.406-.655-.528-.257-.123-.54-.183-.824-.176-.257-.006-.512.04-.75.138-.238.096-.454.241-.633.424-.387.406-.608.942-.62 1.503zM20.352 14.956V.776h1.194v14.18h-1.194zM23.738 22.38V7.767h1.082v.934c.225-.335.522-.616.869-.822.36-.192.765-.287 1.173-.274.567-.011 1.123.154 1.592.473.472.332.835.798 1.042 1.337.239.602.358 1.245.35 1.892.012.682-.12 1.359-.387 1.987-.23.555-.623 1.027-1.128 1.353-.462.305-1.002.468-1.555.471-.373.006-.741-.082-1.07-.257-.303-.16-.568-.382-.78-.65v8.172l-1.188-.003zm1.082-10.978c-.058.727.136 1.45.55 2.05.156.206.357.373.589.489.23.114.486.175.744.175.265-.001.526-.064.763-.183.236-.12.441-.291.6-.503.426-.625.626-1.376.567-2.13.054-.728-.14-1.454-.553-2.057-.152-.21-.35-.38-.58-.499-.23-.118-.484-.182-.742-.185-.266.007-.526.076-.76.201-.234.125-.436.303-.59.52-.432.62-.64 1.368-.588 2.122z"/>
    <path fill="#B5B5B5" d="M30.934 21.635c-.305.278-.655.5-1.036.659-.34.13-.703.195-1.067.192-.525.035-1.044-.133-1.448-.47-.166-.152-.297-.338-.385-.545-.087-.208-.128-.432-.121-.657-.003-.264.06-.525.18-.76s.296-.438.512-.59c.212-.146.447-.256.696-.323.283-.07.57-.119.86-.15.587-.054 1.166-.168 1.728-.34v-.258c.016-.153 0-.308-.048-.455-.047-.147-.124-.282-.227-.397-.313-.244-.706-.363-1.103-.334-.353-.028-.706.056-1.009.24-.253.226-.422.53-.48.865l-.947-.132c.064-.362.21-.704.425-1.002.224-.272.52-.476.855-.586.417-.145.855-.216 1.296-.207.404-.013.807.046 1.19.175.259.087.49.24.673.443.153.197.256.427.3.672.042.302.058.607.05.912v1.321c-.014.582.006 1.165.061 1.744.041.245.123.481.24.7h-1.011c-.103-.227-.165-.47-.184-.717zm-.08-2.207c-.512.185-1.043.31-1.583.373-.288.032-.57.098-.842.198-.133.059-.249.15-.338.267-.088.116-.146.252-.169.396-.022.144-.007.292.042.43.05.136.133.259.242.356.243.192.549.286.858.264.348.006.691-.08.995-.25.28-.155.504-.394.64-.684.121-.315.174-.652.157-.989l-.003-.361zM33.566 24.6l-.107-.928c.18.053.366.083.554.088.178.008.356-.03.516-.11.13-.074.239-.18.317-.307.119-.237.218-.483.296-.736.018-.055.047-.135.086-.24l-2.163-5.843h1.043l1.188 3.377c.154.428.292.878.415 1.35.11-.449.243-.892.398-1.328l1.22-3.399h.969l-2.174 5.93c-.153.452-.334.894-.543 1.323-.135.285-.338.532-.591.72-.236.157-.515.236-.797.23-.215-.007-.427-.05-.627-.127zM21.47 18.465H4.374v1.996H21.47v-1.996zM38.529 15.23h-7.986v-1.02c-.063-1.166.16-2.33.65-3.392.491-1.06 1.235-1.985 2.165-2.691l.233-.208c.14-.128.304-.27.48-.422.834-.721 2.384-2.062 2.384-2.965 0-1.164-1.108-1.579-2.145-1.579-.501.06-.984.227-1.416.488-.433.26-.804.61-1.092 1.025l-1.689-1.143c.475-.69 1.099-1.263 1.825-1.679.726-.416 1.537-.663 2.372-.724 2.464 0 4.183 1.487 4.183 3.617 0 1.834-1.858 3.442-3.088 4.505l-.695.613c-.575.412-1.056.94-1.413 1.55-.357.61-.581 1.289-.659 1.992h5.889l.002 2.033z"/>
</svg>
