<svg xmlns="http://www.w3.org/2000/svg" width="109" height="25" fill="none" viewBox="0 0 109 25">
    <path fill="#B5B5B5" d="M28.064 9.38C27.29 8.66 26.324 8.18 25.282 8c-1.043-.18-2.115-.05-3.085.37-.97.422-1.796 1.118-2.376 2.002-.58.884-.888 1.919-.888 2.976 0 1.058.308 2.093.888 2.977.58.884 1.406 1.58 2.376 2.001.97.422 2.042.55 3.085.37 1.042-.179 2.009-.66 2.782-1.38v1.573h2.81V8.076h-2.81v1.305zm-3.678 6.642c-.529 0-1.045-.157-1.485-.45-.44-.295-.783-.712-.986-1.201-.202-.489-.255-1.027-.152-1.545.104-.52.358-.996.732-1.37.374-.374.85-.629 1.37-.732.518-.103 1.056-.05 1.545.152.489.203.906.546 1.2.986.294.44.451.956.451 1.485 0 .71-.283 1.39-.784 1.89-.502.502-1.181.784-1.89.785zM13.747 5.356H6.295v13.532h2.811v-3.312h4.641s4.38.217 4.38-5.078c0-5.294-4.38-5.142-4.38-5.142zm0 7.934h-4.64V7.64h4.64s1.743-.174 1.743 2.943c0 2.901-1.743 2.704-1.743 2.704v.003zM39.928 14.345v.58c-.17.19-.841.562-2.447.562s-2.284-.387-2.449-.58V8.07h-2.75v7.163c.022.31.36 3.005 5.195 3.005.826.013 1.65-.089 2.448-.302v.513c-.147.2-1.016 1.09-4.769 1.09v2.752c7.109 0 7.513-3.037 7.522-3.664v-9.84h-2.753l.003 5.558z"/>
    <path fill="#B5B5B5" d="M62.689 6.424c1.369-.599 2.79-1.067 4.248-1.398h-27.02v2.752h6.186v11.24h2.751V7.779h11.197s1.003-.548 2.638-1.354zM85.966 14.668l.008-3.486h5.237V8.43H85.98l.007-4.117h-2.753V8.43H75.66c-.92-.073-1.833.219-2.542.811-.332.314-.593.695-.765 1.12-.171.423-.249.878-.228 1.335-.018.442.062.883.235 1.29.172.407.433.771.763 1.066.796.624 1.807.906 2.812.785h3.058l.187-.012c.097-.006.195.006.289.036.037.095.052.198.044.3.01.1-.008.2-.052.29-.187.086-.395.12-.6.099h-8.079c.068-.183.12-.371.154-.563l.018-6.168h-2.752v5.78c-.108.332-.57 1.212-2.415 1.212-1.812 0-2.31-.677-2.416-.865v-4.623c-.54.35-1.045.754-1.506 1.202-.676.676-1.246 1.351-1.246 1.351v2.284l.025.261c.024.129.66 3.14 5.143 3.14.888.066 1.777-.103 2.58-.488.803-.385 1.491-.974 1.996-1.707V18.3l8.365-.006c.054 0 .157.012.297.012.836.016 1.648-.276 2.284-.819.615-.626.958-1.47.954-2.348-.004-.878-.356-1.72-.977-2.34-.664-.541-1.514-.798-2.367-.715h-3.065l-.176.012c-.256.036-.517-.006-.75-.12-.044-.086-.063-.184-.052-.28-.017-.145.014-.291.09-.416.17-.094.367-.13.56-.103h7.71v3.19c-.033.765.233 1.513.741 2.085 1.202 1.42 3.592 2.111 7.304 2.111v-2.752c-4.213 0-5.254-1.025-5.315-1.144z"/>
    <path fill="#B5B5B5" d="M51.16 11.46c1.374 2.108 2.281 4.485 2.66 6.972 0 0 .26 1.504 1.373 1.504 1.111 0 1.634-1.896 1.634-1.896s1.59-9.736 16.32-12.621c0 0-11.157-.153-17.584 7.758-.678-1.118-1.548-2.106-2.57-2.92-.341-.24-1.395-.697-1.897-.219-.634.61.065 1.422.065 1.422zM93.396 7.757c-.293-.128-.542-.337-.72-.602-.177-.266-.275-.577-.281-.896 0-.284.068-.564.2-.815.133-.252.325-.467.56-.627.553-.398 1.222-.601 1.903-.577.676-.025 1.34.178 1.886.577.233.16.424.376.555.628.131.25.2.53.198.814-.011.316-.11.623-.286.885-.176.263-.421.472-.71.603.346.136.644.368.861.668.21.287.322.634.318.99.003.3-.066.598-.204.866-.137.268-.338.498-.584.671-.589.42-1.3.631-2.022.601-.74.03-1.47-.18-2.079-.6-.253-.166-.46-.391-.605-.657-.144-.265-.22-.562-.22-.864-.009-.375.108-.742.33-1.043.223-.301.54-.52.9-.622zm.12 1.63c.002.164.042.326.118.472.076.146.184.273.317.37.312.224.686.345 1.07.345.385 0 .76-.121 1.07-.346.136-.092.247-.216.324-.362.077-.145.117-.307.117-.47 0-.165-.04-.327-.117-.472-.077-.145-.188-.27-.324-.362-.31-.223-.684-.343-1.067-.343-.382 0-.756.12-1.067.343-.134.092-.244.215-.32.358-.078.144-.119.304-.12.467zm.171-3.133c0 .15.036.296.104.429.069.132.168.246.29.332.28.202.617.31.962.31s.681-.108.962-.31c.123-.082.223-.193.293-.323.07-.13.106-.276.106-.423 0-.148-.036-.294-.106-.424s-.17-.241-.293-.323c-.28-.203-.616-.312-.962-.312-.345 0-.682.11-.962.312-.12.082-.217.191-.286.318-.068.128-.106.27-.109.414h.001zM99.478 7.757c-.293-.127-.543-.336-.72-.602-.178-.266-.275-.577-.281-.896 0-.284.068-.564.2-.816.133-.25.325-.466.56-.626.552-.398 1.222-.601 1.902-.577.676-.025 1.339.178 1.885.577.234.16.425.376.556.627.132.252.201.531.199.815-.011.316-.111.623-.287.886-.176.262-.421.471-.709.602.344.136.643.368.86.669.21.286.322.633.319.989.003.301-.067.599-.204.867-.138.267-.339.498-.586.67-.588.42-1.299.631-2.02.601-.74.031-1.47-.18-2.08-.6-.253-.166-.461-.391-.605-.657-.144-.265-.22-.562-.22-.864-.008-.375.109-.742.332-1.043.222-.301.539-.52.9-.622zm.12 1.63c.002.164.043.326.119.473.075.146.184.272.318.368.311.225.685.347 1.069.347.384 0 .758-.122 1.069-.347.136-.092.248-.216.326-.361.077-.145.117-.307.117-.472 0-.164-.04-.326-.117-.471-.078-.146-.19-.27-.326-.362-.311-.223-.683-.344-1.066-.344s-.756.12-1.066.344c-.135.092-.246.214-.324.358-.077.144-.118.304-.12.467h.002zm.17-3.133c0 .15.037.297.106.429s.168.246.29.332c.28.202.617.31.962.31.346 0 .682-.108.962-.31.123-.082.224-.193.293-.323.07-.13.107-.276.107-.423 0-.148-.037-.294-.107-.424-.069-.13-.17-.24-.293-.323-.28-.203-.616-.312-.962-.312-.345 0-.682.11-.962.312-.119.082-.218.19-.287.318-.07.127-.107.27-.11.414h.002z"/>
</svg>
