<svg xmlns="http://www.w3.org/2000/svg" width="109" height="25" fill="none" viewBox="0 0 109 25">
    <path fill="#B5B5B5" d="M4.21 5.486h3.005l7.429 10.131h.046V5.487H17.4v13.75h-3.005L6.991 9.128h-.068v10.11H4.211L4.21 5.488zM20.252 5.486h2.599v2.08h-2.599v-2.08zm0 3.794h2.599v9.958h-2.599V9.28zM25.446 9.28h2.462v1.464l.046.038c.4-.556.932-1.003 1.55-1.299.66-.32 1.385-.482 2.119-.472 1.082-.063 2.155.233 3.053.841.378.302.676.691.87 1.134.195.443.28.926.247 1.408v6.838h-2.598v-6.26c.029-.623-.184-1.233-.593-1.704-.479-.393-1.092-.583-1.709-.53-.404-.007-.806.062-1.185.203-.491.184-.914.515-1.211.947-.298.432-.456.945-.453 1.47v5.874h-2.598V9.28zM40.327 14.827c0 .38.064.759.193 1.117.125.353.323.674.582.945.277.282.61.502.98.644.45.17.93.252 1.413.24.637.03 1.27-.113 1.833-.413.474-.287.84-.725 1.038-1.243h2.46c-.13.525-.371 1.017-.705 1.442-.335.425-.742.787-1.203 1.07-.491.296-1.025.517-1.584.653-.6.15-1.215.225-1.833.222-.837.015-1.67-.116-2.462-.386-.671-.232-1.288-.6-1.811-1.081-.493-.46-.875-1.027-1.117-1.657-.257-.676-.384-1.395-.376-2.119-.003-.69.133-1.375.399-2.012.262-.63.65-1.2 1.14-1.676.515-.495 1.122-.885 1.788-1.145.755-.294 1.56-.438 2.37-.425.857-.014 1.706.154 2.495.49.697.3 1.322.743 1.834 1.303.484.534.847 1.168 1.06 1.857.22.699.279 1.438.171 2.163l-8.665.011zm6.062-1.442c-.03-.347-.12-.686-.263-1.003-.14-.316-.341-.602-.592-.841-.265-.248-.575-.444-.912-.578-.382-.152-.79-.228-1.202-.221-.422-.006-.842.063-1.241.203-.354.121-.68.31-.962.557-.265.237-.48.523-.637.842-.16.324-.25.679-.263 1.04h6.072zM50.81 5.486h6.927c.508.005 1.015.05 1.516.135.545.086 1.07.272 1.55.548.49.287.903.69 1.201 1.174.345.607.511 1.299.48 1.996.027.538-.079 1.074-.31 1.561-.23.487-.578.91-1.01 1.23-1.124.723-2.45 1.068-3.782.983H51.82v6.13h-1.003L50.81 5.487zm1.002 6.895h5.72c.63.015 1.259-.079 1.857-.279.452-.152.867-.398 1.22-.72.289-.276.514-.611.66-.983.134-.345.204-.712.205-1.082-.008-.31-.053-.616-.137-.915-.103-.376-.29-.725-.547-1.02-.316-.36-.709-.643-1.15-.828-.626-.25-1.298-.364-1.971-.337h-5.857v6.164zM70.976 17.273h-.046c-.147.313-.348.598-.592.842-.28.28-.598.516-.945.703-.399.216-.824.377-1.264.48-.508.121-1.028.18-1.55.175-1.01.06-2.017-.178-2.895-.684-.34-.231-.613-.548-.793-.918-.18-.37-.26-.78-.232-1.191-.023-.505.122-1.002.41-1.416.273-.366.628-.662 1.037-.866.438-.22.907-.372 1.39-.453.508-.089.999-.155 1.47-.192l1.344-.097c.494-.022.986-.083 1.47-.182.292-.055.568-.174.809-.348.178-.141.3-.343.341-.567.05-.286.073-.577.069-.868.001-.261-.06-.52-.182-.751-.138-.248-.333-.46-.57-.617-.306-.2-.646-.343-1.003-.423-.493-.112-.998-.164-1.504-.155-.893-.042-1.778.187-2.54.656-.322.222-.587.518-.772.863-.184.345-.283.73-.288 1.12h-.865c-.002-.478.11-.95.326-1.377.216-.426.529-.796.915-1.08.98-.601 2.122-.887 3.27-.817 1.076-.084 2.153.162 3.088.704.302.2.55.475.719.796.169.321.255.68.25 1.043v5.759c0 .142 0 .283.01.423.006.132.033.262.08.386.045.115.124.213.228.28.139.078.297.114.456.104.213-.004.426-.023.638-.056v.615c-.232.052-.47.078-.707.077-.282.009-.563-.032-.832-.12-.18-.06-.34-.166-.466-.308-.109-.13-.183-.286-.216-.453-.04-.186-.06-.377-.058-.567v-.52zm0-3.659c-.27.245-.608.4-.969.443-.477.082-.959.14-1.442.173l-1.46.12c-.425.037-.85.093-1.275.162-.399.064-.787.185-1.15.36-.33.157-.616.392-.832.685-.226.33-.339.726-.32 1.126-.02.32.045.64.19.926.143.286.36.529.63.703.686.387 1.47.57 2.256.529.808.037 1.612-.119 2.348-.453.51-.248.96-.603 1.322-1.04.273-.332.472-.72.58-1.136.063-.243.103-.491.12-.742l.002-1.856zM72.959 9.339h1.025l4.353 9.032 4.01-9.032h.98l-5.013 10.959c-.24.487-.465.907-.673 1.26-.167.312-.405.579-.694.781-.324.212-.696.341-1.082.376-.549.05-1.1.073-1.651.067v-.635c.489.013.978-.027 1.458-.12.362-.091.698-.266.98-.512.224-.223.402-.488.523-.78.183-.379.411-.895.684-1.549l-4.9-9.847zM104.323 5.005H87.164c-.725 0-1.329.636-1.329 1.398v7.114c0 .762.604 1.397 1.33 1.397h17.037c.726 0 1.33-.635 1.33-1.397V6.403c.121-.762-.484-1.398-1.209-1.398zm-9.304 7.622c-.121.509-.484.763-1.088.763h-.483c-.604 0-.967-.381-.846-1.017V8.308H90.91c0 1.144-.12 1.906-.242 2.414-.362 1.143-1.087 2.16-2.175 2.795-.12-.127-.241-.254-.362-.508.967-.636 1.692-1.525 1.933-2.541.121-.381.242-1.143.242-2.16h-2.054v-.635h2.054V6.15h.604v1.524h2.175v4.573c0 .381.121.509.363.509h.362c.242 0 .484-.128.484-.509 0-.38.12-.762.12-1.27.242.254.484.254.726.381 0 .381-.121.89-.121 1.27zm3.02 1.017h-.603V9.198c-.242.508-.484.889-.846 1.27 0-.381-.121-.635-.121-.762.604-.89 1.087-2.16 1.57-3.557l.605.254c-.242.508-.363 1.143-.604 1.524v5.717zm.847-4.065l.483-.381c.242.508.604 1.016.967 1.778l-.484.381c-.241-.635-.604-1.27-.966-1.778zm4.471-1.144h-.967v3.811c0 .763-.363 1.144-.967 1.144h-1.087c0-.254-.121-.381-.121-.635h1.087c.242 0 .363 0 .484-.128.121-.127.121-.254.121-.635V8.435h-3.263V7.8h3.263V6.15h.604V7.8h.966v.635h-.12z"/>
</svg>
