<svg xmlns="http://www.w3.org/2000/svg" width="25" height="25" fill="none" viewBox="0 0 25 25">
    <path fill="#B5B5B5" d="M.554.768v24h24v-24h-24zm20.212 16.126c-.094.36-.282.69-.546.953-.264.264-.593.453-.954.547-4.46.499-8.963.499-13.424 0-.361-.094-.69-.283-.954-.547-.264-.263-.452-.593-.546-.953-.501-2.727-.501-5.523 0-8.25.094-.361.282-.69.546-.954.264-.264.593-.453.954-.546 4.46-.501 8.963-.501 13.424 0 .361.093.69.282.954.546.264.263.453.593.546.954.501 2.727.501 5.522 0 8.25z"/>
    <path fill="#B5B5B5" d="M10.98 15.355l4.462-2.587-4.463-2.587v5.174z"/>
</svg>
