<svg xmlns="http://www.w3.org/2000/svg" width="25" height="25" fill="none" viewBox="0 0 25 25">
    <path fill="#B5B5B5" d="M.563.768v24h24v-24h-24zm18 9v.36c0 4.08-3.12 8.76-8.76 8.76-1.68 0-3.36-.48-4.68-1.44h.72c1.44 0 2.76-.48 3.84-1.32-1.32 0-2.52-.96-2.88-2.16h.6c.24 0 .6 0 .84-.12-1.44-.24-2.52-1.56-2.52-3 .36.36.84.48 1.32.48-.84-.48-1.32-1.44-1.32-2.52 0-.6.12-1.08.36-1.56 1.56 1.8 3.84 3.12 6.36 3.24 0-.24-.12-.48-.12-.72 0-1.68 1.32-3.12 3.12-3.12.84 0 1.68.36 2.28.96.72-.12 1.32-.36 1.92-.72-.24.72-.72 1.32-1.32 1.68.6-.12 1.2-.24 1.8-.48-.48.6-.96 1.2-1.56 1.68z"/>
</svg>
